<?xml version="1.0" encoding="UTF-8"?>
<svg version="1.1" xmlns="http://www.w3.org/2000/svg" width="500" height="500">
<path d="M0 0 C3.45877867 1.48812256 5.69775355 3.44896831 8.34968185 6.1035862 C9.21804476 6.967967 10.08640766 7.83234781 10.98108459 8.72292197 C11.94017702 9.68772038 12.89917658 10.65261113 13.85809326 11.61758423 C14.87994438 12.63856336 15.90223483 13.65910295 16.924927 14.67923963 C19.73659139 17.48642516 22.5419701 20.29982033 25.34638095 23.11424971 C28.37067416 26.14716733 31.40073206 29.17431587 34.43009949 32.2021637 C39.67877992 37.44979464 44.92378154 42.70107956 50.16631317 47.95485306 C57.74616941 55.55095265 65.33153208 63.14153378 72.91825679 70.73077266 C85.22660033 83.04349513 97.53046947 95.36067875 109.83154297 107.68066406 C121.78200121 119.64947598 133.73455499 131.61618877 145.68994141 143.58007812 C146.42667842 144.31734059 147.16341543 145.05460305 147.92247781 145.81420679 C151.61842647 149.5127655 155.31441646 153.21128291 159.010427 156.90977979 C189.68002778 187.60011925 220.34237522 218.29769761 251 249 C249.59755879 251.92556527 248.30959777 253.90535554 245.91893005 256.11297607 C245.28656433 256.70329117 244.65419861 257.29360626 244.00267029 257.90180969 C243.3101265 258.53846054 242.6175827 259.17511139 241.90405273 259.83105469 C240.39005807 261.24241042 238.8767812 262.65453644 237.36412048 264.06732178 C236.15893926 265.1895879 236.15893926 265.1895879 234.92941093 266.33452606 C229.75801542 271.17757142 224.6598649 276.0978766 219.55119228 281.00689316 C215.0743117 285.30059945 210.57408717 289.56222167 206.0090332 293.76220703 C182.02938021 313.81192003 182.02938021 313.81192003 171.28785706 341.54058838 C171.33318711 346.63545318 172.05643695 351.62763848 172.81033325 356.6595459 C173.25053626 364.41250179 169.73196062 372.39236246 164.8125 378.3203125 C158.94662953 383.75635626 151.58033178 385.47947455 143.984375 387.1953125 C141.04059136 387.98905521 138.54797618 389.0404192 135.8125 390.375 C131.88212269 392.28921834 128.08917264 393.57797247 123.8815918 394.67626953 C114.91192474 397.02173716 108.27768899 400.48891808 100.7333746 405.86665821 C98.83741191 407.10630586 96.8827751 408.08397508 94.85975647 409.10221863 C89.36255679 412.14206177 85.27658936 416.18969177 80.90014648 420.64575195 C80.04051804 421.5047963 79.18088959 422.36384064 78.29521179 423.24891663 C75.96203857 425.58438345 73.63792911 427.92842159 71.31769443 430.27672982 C68.88261976 432.73697121 66.43605629 435.18573557 63.99073792 437.63578796 C59.37179246 442.26711862 54.7631304 446.90854143 50.15816027 451.55376357 C44.91089096 456.84588999 39.65212958 462.12653392 34.39241683 467.40628874 C23.58219193 478.25821692 12.78634282 489.12433056 2 500 C-1.45877867 498.51187744 -3.69775355 496.55103169 -6.34968185 493.8964138 C-7.21804476 493.032033 -8.08640766 492.16765219 -8.98108459 491.27707803 C-9.94017702 490.31227962 -10.89917658 489.34738887 -11.85809326 488.38241577 C-12.87994438 487.36143664 -13.90223483 486.34089705 -14.924927 485.32076037 C-17.73659139 482.51357484 -20.5419701 479.70017967 -23.34638095 476.88575029 C-26.37067416 473.85283267 -29.40073206 470.82568413 -32.43009949 467.7978363 C-37.67877992 462.55020536 -42.92378154 457.29892044 -48.16631317 452.04514694 C-55.74616941 444.44904735 -63.33153208 436.85846622 -70.91825679 429.26922734 C-83.22660033 416.95650487 -95.53046947 404.63932125 -107.83154297 392.31933594 C-119.78200121 380.35052402 -131.73455499 368.38381123 -143.68994141 356.41992188 C-144.42667842 355.68265941 -145.16341543 354.94539695 -145.92247781 354.18579321 C-149.61842647 350.4872345 -153.31441646 346.78871709 -157.010427 343.09022021 C-187.68002778 312.39988075 -218.34237522 281.70230239 -249 251 C-247.51187744 247.54122133 -245.55103169 245.30224645 -242.8964138 242.65031815 C-241.5998426 241.34777379 -241.5998426 241.34777379 -240.27707803 240.01891541 C-239.31227962 239.05982298 -238.34738887 238.10082342 -237.38241577 237.14190674 C-236.36143664 236.12005562 -235.34089705 235.09776517 -234.32076037 234.075073 C-231.51357484 231.26340861 -228.70017967 228.4580299 -225.88575029 225.65361905 C-222.85283267 222.62932584 -219.82568413 219.59926794 -216.7978363 216.56990051 C-211.55020536 211.32122008 -206.29892044 206.07621846 -201.04514694 200.83368683 C-193.44904735 193.25383059 -185.85846622 185.66846792 -178.26922734 178.08174321 C-165.95650487 165.77339967 -153.63932125 153.46953053 -141.31933594 141.16845703 C-129.35052402 129.21799879 -117.38381123 117.26544501 -105.41992188 105.31005859 C-104.68265941 104.57332158 -103.94539695 103.83658457 -103.18579321 103.07752219 C-99.4872345 99.38157353 -95.78871709 95.68558354 -92.09022021 91.989573 C-61.39988075 61.31997222 -30.70230239 30.65762478 0 0 Z M150.68334961 350.203125 C149.67044564 351.21618822 148.66031084 352.23202462 147.65234375 353.25 C147.12105362 353.78270508 146.58976349 354.31541016 146.04237366 354.86425781 C144.33839927 356.5738501 142.63792595 358.28687894 140.9375 360 C139.78603547 361.15647723 138.63434572 362.31273028 137.48242188 363.46875 C134.65232375 366.30990086 131.82536181 369.15413941 129 372 C134.2058531 373.73528437 139.07994618 371.00493784 144 369 C148.05989085 366.93817061 150.5681315 364.72442458 152.9375 360.75 C154.18311472 356.35371275 154.27729188 352.5291007 154 348 C152.58794453 347.88514522 152.58794453 347.88514522 150.68334961 350.203125 Z " fill="#FDDD5A" transform="translate(249,0)"/>
<path d="M0 0 C9.96372065 -0.23444049 19.58540092 0.13523867 27.8828125 6.109375 C33.14483079 11.33028377 34.13301994 15.81462972 34.1953125 23.046875 C34.17935427 39.84912177 26.14234605 51.50999446 15.29296875 63.71875 C12.82759089 66.14998135 11.60780905 66.1315527 8.0078125 66.421875 C5.05312597 66.36278127 3.99222857 66.17502464 1.3828125 64.609375 C-0.28149183 61.83553445 -0.92250099 59.63106616 -0.765625 56.37890625 C0.36653563 52.41634403 3.05162452 49.6984324 5.7109375 46.62890625 C12.23397774 39.06171029 16.29164761 32.33025263 15.8828125 22.109375 C7.68086328 18.59425391 -0.77127446 17.55991594 -9.2421875 20.796875 C-10.88199341 21.53568865 -12.50798238 22.3060893 -14.1171875 23.109375 C-14.85324219 23.47160156 -15.58929688 23.83382812 -16.34765625 24.20703125 C-22.85329818 27.80771487 -25.9623686 32.53474123 -28.22265625 39.53125 C-29.61289098 45.46452404 -29.52487999 51.4827023 -29.5546875 57.546875 C-29.58755859 58.72314453 -29.62042969 59.89941406 -29.65429688 61.11132812 C-29.72164882 72.0652033 -26.09059236 78.51230853 -18.81640625 86.44921875 C-13.83838728 91.3128005 -9.08474452 92.21061889 -2.35546875 92.28515625 C-0.67614258 92.32092773 -0.67614258 92.32092773 1.03710938 92.35742188 C3.37286729 92.40003106 5.70885839 92.43147488 8.04492188 92.45117188 C16.63055122 92.66249532 23.23139858 93.8548539 29.7578125 99.671875 C34.65347955 106.39706468 35.98498738 116.02248724 34.8828125 124.109375 C31.63510112 137.9446255 19.16735064 147.58277248 7.8671875 155.12109375 C-2.19903891 161.27697836 -10.97204829 163.63361597 -22.7421875 163.421875 C-24.32531738 163.40169312 -24.32531738 163.40169312 -25.94042969 163.38110352 C-40.5741098 163.10312165 -52.8348995 160.93286747 -66.5234375 155.765625 C-69.49419762 154.65061693 -72.41639835 153.73539072 -75.50390625 153.00390625 C-80.49917499 151.76723972 -83.70437148 149.75006457 -87.0546875 145.859375 C-88.5535081 141.98007462 -88.30327917 138.99529965 -87.1171875 135.109375 C-84.47183274 129.15941302 -81.46045604 123.01908369 -76.1171875 119.109375 C-72.08598419 117.95760263 -70.07837631 117.67057141 -66.2421875 119.421875 C-64.1171875 121.109375 -64.1171875 121.109375 -63.1171875 123.109375 C-62.55807763 128.79365873 -62.55807763 128.79365873 -63.1171875 131.109375 C-65.640625 133.87109375 -65.640625 133.87109375 -68.1171875 136.109375 C-53.14066274 142.00360133 -39.25128025 144.21023816 -23.1796875 144.484375 C-22.22046387 144.51063965 -21.26124023 144.5369043 -20.27294922 144.56396484 C-11.64665808 144.58346437 -5.04045341 142.12861748 1.6328125 136.609375 C2.37402344 136.00222656 3.11523438 135.39507812 3.87890625 134.76953125 C4.87083984 133.94775391 4.87083984 133.94775391 5.8828125 133.109375 C6.8109375 132.42875 7.7390625 131.748125 8.6953125 131.046875 C12.30258547 127.8518618 14.62992857 124.87956251 15.3203125 120.046875 C14.82162669 116.69855596 13.9452243 114.78287178 11.8828125 112.109375 C8.78697325 111.07742858 6.9499456 111.07046604 3.7265625 111.22265625 C-17.90100518 111.95881188 -17.90100518 111.95881188 -26.1171875 105.109375 C-26.76042969 104.62984375 -27.40367187 104.1503125 -28.06640625 103.65625 C-37.80591884 95.96604917 -47.41046746 84.95681415 -48.90551758 72.43701172 C-50.58972912 53.91651243 -50.14200852 33.00139155 -37.8203125 17.97265625 C-30.07202764 9.49574827 -19.85092997 1.55514773 -8.0546875 0.171875 C-5.36778157 0.08377972 -2.68748336 0.09429766 0 0 Z " fill="#060401" transform="translate(159.1171875,125.890625)"/>
<path d="M0 0 C1.77734375 1.40625 1.77734375 1.40625 3 3 C3 3.66 3 4.32 3 5 C4.11375 4.731875 5.2275 4.46375 6.375 4.1875 C13.60518297 3.39255842 18.57019917 7.14655642 24.12890625 11.38671875 C36.03130606 21.15742176 46.66967702 32.48242169 57.46728516 43.43554688 C58.30308105 44.28181641 59.13887695 45.12808594 60 46 C60.88921143 46.91773193 61.77842285 47.83546387 62.69458008 48.78100586 C65.01160997 51.01117473 65.96898379 51.62584065 69.0625 52.0625 C72.81540572 52.84140496 74.772239 53.70291373 77 57 C78.05590483 60.87165104 78.37482524 63.0629369 76.875 66.8125 C74.60855361 69.45668746 73.40424045 70.24350212 70 71 C52.83983057 71 36.15186165 53.39683322 24.41796875 42.2421875 C22.35648569 40.33056993 20.2857978 38.6304292 18 37 C18.433125 38.53140625 18.433125 38.53140625 18.875 40.09375 C21.28565356 49.2656005 22.42942561 58.07024462 22.5 67.5625 C22.51804687 68.56023437 22.53609375 69.55796875 22.5546875 70.5859375 C22.48501205 79.26053077 20.15232299 86.66124298 14 93 C7.69376505 97.96009634 -0.97198655 96.80504077 -8.58007812 96.29736328 C-16.55922744 95.31687459 -23.4443364 90.85204661 -28.34765625 84.58203125 C-38.01312512 69.47830803 -44.33726889 53.13770478 -42 35 C-38.99376222 22.80874635 -32.29961207 12.25546945 -22 5 C-15.26426112 1.25489282 -7.80291967 -1.7767559 0 0 Z " fill="#050302" transform="translate(361,178)"/>
<path d="M0 0 C7.25930634 0.24769287 10.66956103 3.23027906 15.5625 8.3125 C27.24949441 21.97729346 30.06224429 34.59275934 30.05810547 52.2800293 C30.06248773 54.36915188 30.09896873 56.45616913 30.13671875 58.54492188 C30.22818751 69.46075885 28.68553171 80.09924679 21.5 88.7578125 C15.63412953 94.19385626 8.26783178 95.91697455 0.671875 97.6328125 C-2.27190864 98.42655521 -4.76452382 99.4779192 -7.5 100.8125 C-11.43070941 102.72688009 -15.22408473 104.01544527 -19.43188477 105.11425781 C-29.06503418 107.63219556 -36.22907783 111.72778117 -44.3125 117.4375 C-48.6068007 120.24386318 -51.10127216 121.08890348 -56.3125 120.4375 C-59.06579021 118.64187595 -60.83877461 117.38495078 -62.3125 114.4375 C-62.81444059 110.08734822 -62.77232387 108.08998751 -60.21484375 104.4609375 C-57.43206544 101.30935725 -54.1894761 99.26942651 -50.5 97.3125 C-49.56426147 96.80058105 -49.56426147 96.80058105 -48.60961914 96.27832031 C-46.84973988 95.32059406 -45.08138785 94.37848372 -43.3125 93.4375 C-42.57515625 93.02242188 -41.8378125 92.60734375 -41.078125 92.1796875 C-34.16117705 88.42561746 -26.44091457 86.61433542 -18.9140625 84.46875 C-15.01944514 83.35358841 -11.12954701 82.22894801 -7.25 81.0625 C-6.56873047 80.8665625 -5.88746094 80.670625 -5.18554688 80.46875 C0.55122988 78.72732689 5.37810156 76.69508351 8.5 71.3125 C11.23781775 63.75934397 10.83912083 55.35547663 10.6875 47.4375 C9.90375 48.241875 9.12 49.04625 8.3125 49.875 C4.20377845 53.88589485 1.1867989 53.95469724 -4.41796875 53.91796875 C-9.392557 53.09222738 -12.06144813 50.08915542 -15.3125 46.4375 C-16.075625 45.674375 -16.83875 44.91125 -17.625 44.125 C-22.24626654 36.76520513 -22.79191051 28.61125432 -22.6875 20.125 C-22.69910156 19.16271484 -22.71070313 18.20042969 -22.72265625 17.20898438 C-22.68619681 8.42833647 -22.68619681 8.42833647 -19.3125 4.4375 C-16.39939608 2.98094804 -13.70824735 3.51582717 -10.50390625 3.6953125 C-8.22673159 3.65955627 -8.22673159 3.65955627 -6.859375 1.95703125 C-4.65025152 -0.21304207 -3.04492232 0.00421151 0 0 Z " fill="#030201" transform="translate(392.3125,289.5625)"/>
<path d="M0 0 C3.12321416 0.2006678 4.69936485 0.63093243 7.5625 2.0625 C10.99711376 6.35576721 10.63702791 10.92111155 10.3984375 16.17578125 C10.38937186 21.38187634 11.86708938 26.05562169 13.375 31 C13.63603516 31.89009766 13.89707031 32.78019531 14.16601562 33.69726562 C15.42371254 37.94859173 16.75453993 42.16394494 18.1875 46.359375 C21.71654713 56.88161437 21.80290238 67.68576392 21.9375 78.6875 C21.96352295 79.86675049 21.9895459 81.04600098 22.01635742 82.26098633 C22.03758956 92.74746728 20.29592461 103.20556566 12.64453125 110.9375 C3.98507278 117.69610173 -6.97469725 117.51995017 -17.4375 116.5625 C-31.26865178 114.51884697 -42.12141894 103.62824576 -50.265625 92.92578125 C-62.33005432 76.41731912 -69.14846137 57.91261173 -71.4375 37.5625 C-71.52257812 36.83933594 -71.60765625 36.11617188 -71.6953125 35.37109375 C-71.91365298 32.00137229 -71.42969117 30.55052647 -69.5625 27.6875 C-67.06295713 25.18795713 -66.11574042 24.65293206 -62.625 24.1875 C-58.31115657 24.69501099 -57.19822166 26.27635067 -54.4375 29.5625 C-53.28515625 32.59375 -53.28515625 32.59375 -52.5 36.0625 C-52.17777978 37.39111128 -51.85343193 38.71920776 -51.52734375 40.046875 C-51.3557373 40.76552734 -51.18413086 41.48417969 -51.00732422 42.22460938 C-45.77558825 63.68952097 -38.37731914 84.39105076 -18.51171875 96.76171875 C-13.32841663 98.76280526 -7.13237952 97.91316473 -1.8125 96.8125 C0.68195805 95.83859481 0.68195805 95.83859481 1.20043945 93.82202148 C4.02251088 76.2102406 1.19384808 58.21651504 -4.25097656 41.50292969 C-7.25881522 32.203602 -8.59084472 23.37990387 -8.8125 13.625 C-8.83876465 12.90231934 -8.8650293 12.17963867 -8.89208984 11.43505859 C-8.90299061 7.85038491 -8.52025134 5.7031958 -6.69140625 2.59375 C-4.19842339 0.34704101 -3.29613061 -0.09711303 0 0 Z " fill="#060402" transform="translate(203.4375,285.4375)"/>
<path d="M0 0 C14.6268484 9.39368709 30.59511383 32.72938582 36.875 49 C37.58948744 52.92968089 37.58949791 55.58794072 36.5 59.4375 C33.91196019 62.32131579 32.30470451 63.2866179 28.5 64 C24.51588306 63.25297807 23.01073851 61.39369211 20.5 58.4375 C19.87609375 57.79039062 19.2521875 57.14328125 18.609375 56.4765625 C11.3254465 48.79961627 5.46088469 40.15341543 -0.5 31.4375 C-0.57476562 32.6234375 -0.64953125 33.809375 -0.7265625 35.03125 C-1.77872713 48.87037716 -3.84410084 63.50813941 -14.5 73.4375 C-19.24414863 75.80957432 -26.57337051 75.24409435 -31.59765625 73.859375 C-33.46399804 72.88870078 -34.90379309 71.81201151 -36.5 70.4375 C-37.263125 69.79296875 -38.02625 69.1484375 -38.8125 68.484375 C-45.23423271 62.59778668 -48.10327253 57.89250276 -48.734375 49.21484375 C-49.278082 24.66647279 -49.278082 24.66647279 -42.1484375 16.98046875 C-37.16162895 12.54348781 -32.93689872 11.14075818 -26.4375 11.30078125 C-24.06617845 11.46811241 -21.80526053 11.86118487 -19.5 12.4375 C-19.2525 11.220625 -19.005 10.00375 -18.75 8.75 C-17.77390181 4.84560723 -16.38953166 2.32703166 -13.5 -0.5625 C-8.49470536 -2.23093155 -4.84441359 -2.16268464 0 0 Z " fill="#060402" transform="translate(285.5,325.5625)"/>
<path d="M0 0 C3.63426589 2.31271466 6.94148887 4.08050693 11.1875 4.9375 C15 6 15 6 17.5 8.25 C19.31061196 11.56945525 19.62127371 13.27235774 19 17 C17.20006226 19.69990662 15.916227 21.5418865 13 23 C8.44017584 23.34890897 5.57186782 22.64699858 1.515625 20.59375 C0.49726563 20.09746094 -0.52109375 19.60117188 -1.5703125 19.08984375 C-3.67761344 18.03619328 -5.78183629 16.97636238 -7.8828125 15.91015625 C-14.35944189 12.76972512 -19.75060783 10.84217202 -27 12 C-29.85222791 13.10205377 -29.85222791 13.10205377 -31 16 C-31.80882338 22.09947985 -31.80882644 27.92156475 -28 33 C-23.71778781 35.57541066 -20.5388812 36.36779067 -15.5703125 36.37109375 C-14.36246094 36.38849609 -13.15460938 36.40589844 -11.91015625 36.42382812 C-9.39454227 36.43291445 -6.8789113 36.43814698 -4.36328125 36.43945312 C3.3897518 36.55917515 9.57964642 36.86966962 15.51074219 42.41162109 C20.23667494 47.69742633 21.47707369 52.39402561 21.3125 59.31640625 C20.12852632 69.48378021 13.61542514 78.47249273 6 85 C-3.59347546 91.08816712 -18.71409546 94.87479664 -30 93 C-34.5477601 91.46662694 -37.31280288 90.03079569 -40 86 C-40.56264953 81.73993928 -40.32289873 79.5767056 -38.2109375 75.8046875 C-36.32774352 73.66625843 -35.29477722 73.05750017 -32.46801758 72.50610352 C-29.36255 72.36276627 -26.29541427 72.36426214 -23.1875 72.4375 C-15.08917738 72.60075269 -9.32713003 72.44614969 -3 67 C-0.94257204 65.01776151 -0.94257204 65.01776151 0.4375 62.9375 C0.91058594 62.28652344 1.38367188 61.63554687 1.87109375 60.96484375 C3.02246783 58.96089509 3.48803816 57.23790484 4 55 C2.6699292 55.03927612 2.6699292 55.03927612 1.31298828 55.0793457 C-2.02328186 55.16530961 -5.35835105 55.22760042 -8.6953125 55.2746582 C-10.13072448 55.29957855 -11.56601257 55.33352875 -13.00097656 55.37719727 C-23.63485053 55.69235741 -31.14201581 54.47099629 -39.8046875 47.859375 C-48.28656916 39.21745783 -50.58857971 32.55784815 -50.4777832 20.6027832 C-50.25679136 14.67685898 -49.24609986 10.04324857 -46 5 C-45.401875 3.906875 -44.80375 2.81375 -44.1875 1.6875 C-33.16169646 -11.85848721 -12.59853358 -8.75682827 0 0 Z " fill="#060402" transform="translate(293,182)"/>
<path d="M0 0 C5.41055614 3.31690616 8.09996937 8.09064446 10.046875 14.0390625 C10.44356511 17.04429064 10.61034682 19.99956217 10.73828125 23.02734375 C11.06506015 26.21654036 11.86854253 28.69097452 13.046875 31.6640625 C15.19697386 37.16228578 17.51502064 43.18806269 15.30078125 48.99609375 C13.60684181 51.49890392 11.77900032 52.86090767 8.84765625 53.57421875 C6.28346101 53.73951398 4.50550181 53.82635087 2.046875 53.0390625 C-1.48801035 49.50417715 -3.02926996 45.78313346 -4.640625 41.1015625 C-5.05699219 39.91691406 -5.47335937 38.73226562 -5.90234375 37.51171875 C-7.52738067 32.14124358 -8.0778441 27.26378137 -8.015625 21.6640625 C-8.00660156 20.60445313 -7.99757813 19.54484375 -7.98828125 18.453125 C-7.97667969 17.65648437 -7.96507812 16.85984375 -7.953125 16.0390625 C-10.923125 16.0390625 -13.893125 16.0390625 -16.953125 16.0390625 C-17.91189356 25.89307272 -15.45433032 32.3733071 -10.953125 41.0390625 C-9.59494862 45.11359163 -9.31213692 48.78319976 -9.953125 53.0390625 C-11.9557807 56.10562904 -13.30448787 57.64404251 -16.92578125 58.51171875 C-19.015625 58.6640625 -19.015625 58.6640625 -22.953125 58.0390625 C-26.7346002 54.27196553 -28.30679882 50.09248303 -30.015625 45.1640625 C-32.93886065 36.96039323 -36.03409181 29.53744226 -41.015625 22.3515625 C-47.99425688 12.19075505 -47.99425688 12.19075505 -47.828125 7.5390625 C-46.85897622 3.66246738 -46.27948264 2.22745568 -42.953125 0.0390625 C-39.14131635 -0.43741358 -36.88631507 -0.48735241 -33.515625 1.4140625 C-31.953125 3.0390625 -31.953125 3.0390625 -31.953125 5.0390625 C-30.81423828 4.19021484 -30.81423828 4.19021484 -29.65234375 3.32421875 C-28.16154297 2.22400391 -28.16154297 2.22400391 -26.640625 1.1015625 C-25.65449219 0.37066406 -24.66835938 -0.36023438 -23.65234375 -1.11328125 C-15.98879936 -6.35909384 -7.71539451 -3.7959741 0 0 Z " fill="#060402" transform="translate(349.953125,312.9609375)"/>
<path d="M0 0 C4.52558414 0.80814002 5.58549897 2.09048866 8.5 5.625 C10.01745337 8.68415176 11.14212649 11.83575629 12.25 15.0625 C12.55292969 15.89587891 12.85585937 16.72925781 13.16796875 17.58789062 C15.6129033 24.46087331 16.5599198 30.68706412 16.74072266 37.95996094 C16.96814087 46.60185305 17.80172307 53.72574537 20.69140625 61.88671875 C21.90443107 65.99459508 21.98854834 69.58589806 20.5 73.625 C17.78189143 76.90271916 16.19237096 77.5137261 12 78.1875 C7.50377193 77.46489192 6.38019912 76.09982087 3.5 72.625 C2.4964448 70.08364405 1.81506764 67.94488062 1.25 65.3125 C1.08363037 64.58756348 0.91726074 63.86262695 0.74584961 63.11572266 C-0.80854029 55.58284978 -0.84685585 48.05800337 -0.99926758 40.39404297 C-1.27001513 31.66435828 -3.0649535 24.64010849 -6.5 16.625 C-8.15041964 12.68106618 -9.13074359 9.95009889 -8.5 5.625 C-5.89210172 1.98974785 -4.4297642 0.79102932 0 0 Z " fill="#070402" transform="translate(210.5,189.375)"/>
<path d="M0 0 C0.19916016 1.03060547 0.19916016 1.03060547 0.40234375 2.08203125 C0.57894531 2.98308594 0.75554687 3.88414062 0.9375 4.8125 C1.11152344 5.70582031 1.28554688 6.59914062 1.46484375 7.51953125 C1.97741153 10.11397171 1.97741153 10.11397171 3 13 C3.12935155 14.89428163 3.22919979 16.79063527 3.3125 18.6875 C3.67156072 24.06144209 4.64132453 28.90177934 6.0625 34.0625 C7.83721164 40.69147659 9.25026208 47.145493 8 54 C5.9375 57.25 5.9375 57.25 3 59 C-1.30128389 59.78205162 -3.25547844 59.44981511 -7 57.1875 C-14.31180555 50.26774837 -19.46668706 40.58754158 -20.27734375 30.57421875 C-20.51241721 21.66963621 -19.78025169 15.4589294 -13.734375 8.5546875 C-4.19095477 0 -4.19095477 0 0 0 Z " fill="#FBDC5A" transform="translate(357,196)"/>
<path d="M0 0 C0.495 0.99 0.495 0.99 1 2 C0.0409375 3.11375 0.0409375 3.11375 -0.9375 4.25 C-2.78333407 6.7111121 -3.56069174 8.03466926 -4 11 C-3.34 11 -2.68 11 -2 11 C-2 10.34 -2 9.68 -2 9 C-0.68 9 0.64 9 2 9 C2 9.99 2 10.98 2 12 C3.98 12 5.96 12 8 12 C8 11.34 8 10.68 8 10 C9.98 10 11.96 10 14 10 C11.44612088 11.70258608 8.8631554 13.15971233 6.16430664 14.61181641 C-7.13558899 21.88862153 -14.25715225 30.86180135 -19.1328125 45.37109375 C-21.32387597 54.54000349 -21.12265249 63.67408512 -21.0625 73.0625 C-21.05747314 74.41861813 -21.05291234 75.77473808 -21.04882812 77.13085938 C-21.03712079 80.42061994 -21.02072211 83.71028594 -21 87 C-21.66 86.67 -22.32 86.34 -23 86 C-23.0498757 81.05616687 -23.08594211 76.11248401 -23.10986328 71.16845703 C-23.11984803 69.49069666 -23.13344057 67.81295336 -23.15087891 66.13525391 C-23.38212404 43.29639607 -23.38212404 43.29639607 -18 34 C-20.97 34.495 -20.97 34.495 -24 35 C-24 34.34 -24 33.68 -24 33 C-25.485 32.505 -25.485 32.505 -27 32 C-26.34 31.34 -25.68 30.68 -25 30 C-28.0838453 31.20041742 -28.0838453 31.20041742 -29.859375 33.86328125 C-31.28263618 36.52945888 -32.93114454 37.67971028 -35.375 39.4375 C-38.84039767 42.02963957 -41.36716971 44.55008445 -44 48 C-45.94010352 49.75625331 -47.95017377 51.36945641 -50 53 C-50.66 52.67 -51.32 52.34 -52 52 C-34.84 34.84 -17.68 17.68 0 0 Z " fill="#F9DC5F" transform="translate(132,117)"/>
<path d="M0 0 C3.5625 0.125 3.5625 0.125 5.5625 1.125 C5.89019239 3.82239383 6.1217953 6.47993682 6.3125 9.1875 C7.1074078 18.16995816 8.90824237 30.47074237 15.5625 37.125 C18.21787372 37.69020003 20.85394713 37.86288198 23.5625 38.125 C23.5625 38.785 23.5625 39.445 23.5625 40.125 C21.62530622 40.17906122 19.68768079 40.21782025 17.75 40.25 C16.67105469 40.27320313 15.59210938 40.29640625 14.48046875 40.3203125 C11.5625 40.125 11.5625 40.125 8.5625 38.125 C8.5625 37.135 8.5625 36.145 8.5625 35.125 C7.2425 34.795 5.9225 34.465 4.5625 34.125 C4.81 34.681875 5.0575 35.23875 5.3125 35.8125 C5.5625 38.125 5.5625 38.125 3.8125 40.75 C0.90772635 43.81614996 -0.61695842 45.05040531 -4.875 45.4375 C-8.54245017 45.11579384 -9.8365807 44.62188253 -12.4375 42.125 C-12.1075 41.465 -11.7775 40.805 -11.4375 40.125 C-10.7775 40.785 -10.1175 41.445 -9.4375 42.125 C-3.91603373 42.68208056 -3.91603373 42.68208056 1.0625 40.6875 C3.36463997 36.75467755 3.34394057 33.57067451 2.5625 29.125 C0.92139275 24.2985702 -1.01057717 19.56286138 -3.58984375 15.15625 C-4.75750837 12.35815968 -4.66543888 9.95571103 -4.625 6.9375 C-4.61855469 5.87144531 -4.61210937 4.80539062 -4.60546875 3.70703125 C-4.34943148 -0.22879755 -4.07658336 0.1482394 0 0 Z " fill="#F3D961" transform="translate(336.4375,327.875)"/>
<path d="M0 0 C0.66 0 1.32 0 2 0 C10.51577477 10.24649878 14.62501574 21.25463261 18 34 C15 36 15 36 13 37 C12.38125 36.00033203 12.38125 36.00033203 11.75 34.98046875 C8.00579373 29.0047824 4.0556804 23.26532794 -0.1328125 17.59375 C-2.60399182 14.16098207 -4.81436353 10.6199604 -7 7 C-4.69 7.33 -2.38 7.66 0 8 C0.33 7.34 0.66 6.68 1 6 C1.66 6 2.32 6 3 6 C3 5.34 3 4.68 3 4 C2.01 3.67 1.02 3.34 0 3 C0 2.01 0 1.02 0 0 Z " fill="#FBDE5B" transform="translate(305,331)"/>
<path d="M0 0 C0.33 0 0.66 0 1 0 C1.03867187 1.72283203 1.03867187 1.72283203 1.078125 3.48046875 C1.4886723 16.10650329 3.73385034 26.82517436 9.265625 38.29296875 C10 40 10 40 10 42 C9.13375 41.7215625 9.13375 41.7215625 8.25 41.4375 C6.00967475 40.83231516 6.00967475 40.83231516 3.875 41.5625 C3.25625 41.706875 2.6375 41.85125 2 42 C1.34 41.34 0.68 40.68 0 40 C0 40.66 0 41.32 0 42 C-1.485 42.495 -1.485 42.495 -3 43 C-3 42.34 -3 41.68 -3 41 C-4.485 41.495 -4.485 41.495 -6 42 C-6.495 44.475 -6.495 44.475 -7 47 C-9.31 47.66 -11.62 48.32 -14 49 C-13.43410156 48.03578125 -12.86820312 47.0715625 -12.28515625 46.078125 C-11.54401311 44.80223301 -10.80314193 43.52618301 -10.0625 42.25 C-9.68931641 41.61578125 -9.31613281 40.9815625 -8.93164062 40.328125 C-5.20160458 33.87617076 -4.17645544 28.41190106 -5 21 C-6.53851202 16.53679187 -8.98091854 12.62289775 -12 9 C-9.1875 9.5625 -9.1875 9.5625 -6 11 C-1.88559714 17.24254226 -2.29255628 24.72644565 -2 32 C-0.48344676 27.64761551 0.44999802 23.58334984 1 19 C0.34 19 -0.32 19 -1 19 C-1.02697137 16.39576408 -1.04682489 13.79180756 -1.0625 11.1875 C-1.07087891 10.44951172 -1.07925781 9.71152344 -1.08789062 8.95117188 C-1.10259828 5.70077932 -1.03531702 3.10595105 0 0 Z " fill="#F6DA62" transform="translate(318,213)"/>
<path d="M0 0 C2.97 0.33 5.94 0.66 9 1 C9.23737365 9.91469911 8.79362465 18.25607982 7 27 C4.32021443 25.99789531 3.19175488 25.33024452 1.734375 22.8203125 C-0.83387036 15.78821212 -1.73240934 9.48018062 -1 2 C-0.67 1.34 -0.34 0.68 0 0 Z " fill="#EDD361" transform="translate(256,355)"/>
<path d="M0 0 C0 0.99 0 1.98 0 3 C-1 4 -2 5 -3 6 C-3.67156616 7.93618425 -3.67156616 7.93618425 -4 10 C-4.33333333 11.33333333 -4.66666667 12.66666667 -5 14 C-5.66 14 -6.32 14 -7 14 C-7 13.01 -7 12.02 -7 11 C-7.66 11.33 -8.32 11.66 -9 12 C-9.33 12.99 -9.66 13.98 -10 15 C-11.92578125 16.6484375 -11.92578125 16.6484375 -14.3125 18.375 C-17.78710052 20.98781177 -20.40911766 23.48380254 -23 27 C-24.6454378 28.68762851 -26.31288577 30.3540349 -28 32 C-30.79080505 34.78101275 -33.56911657 37.57401527 -36.33984375 40.375 C-37.53902257 41.58337296 -38.73824201 42.79170562 -39.9375 44 C-40.53240234 44.60328125 -41.12730469 45.2065625 -41.74023438 45.828125 C-45.33886928 49.44642458 -49.02647222 52.79691196 -53 56 C-53.66 55.67 -54.32 55.34 -55 55 C-36.85 36.85 -18.7 18.7 0 0 Z " fill="#F4DD6F" transform="translate(63,186)"/>
<path d="M0 0 C0.495 0.99 0.495 0.99 1 2 C-2.90941362 6.80299388 -6.82354399 11.31819308 -11.75 15.125 C-14.25052455 16.87431597 -14.25052455 16.87431597 -15 20 C-16.92578125 21.6484375 -16.92578125 21.6484375 -19.3125 23.375 C-22.77846403 25.97172225 -25.42011968 28.49136276 -28 32 C-28.99 32.495 -28.99 32.495 -30 33 C-30.33 33.99 -30.66 34.98 -31 36 C-32.92578125 37.6484375 -32.92578125 37.6484375 -35.3125 39.375 C-38.77846403 41.97172225 -41.42011968 44.49136276 -44 48 C-44.99 48.495 -44.99 48.495 -46 49 C-46.33 49.99 -46.66 50.98 -47 52 C-49.06640625 53.82421875 -49.06640625 53.82421875 -51.5625 55.6875 C-52.38878906 56.31011719 -53.21507812 56.93273437 -54.06640625 57.57421875 C-54.70449219 58.04472656 -55.34257812 58.51523438 -56 59 C-56.66 58.67 -57.32 58.34 -58 58 C-38.86 38.86 -19.72 19.72 0 0 Z " fill="#F4DD70" transform="translate(212,37)"/>
<path d="M0 0 C0.33 0 0.66 0 1 0 C2.0735426 10.37757848 2.0735426 10.37757848 -0.55859375 14.35546875 C-2.29703509 16.05193565 -4.03404462 17.57568539 -6 19 C-6.66 18.67 -7.32 18.34 -8 18 C-8 17.34 -8 16.68 -8 16 C-8.66 16 -9.32 16 -10 16 C-10 14.35 -10 12.7 -10 11 C-11.85625 10.814375 -11.85625 10.814375 -13.75 10.625 C-19.52840909 9.87840909 -19.52840909 9.87840909 -22 8 C-22.75 5.875 -22.75 5.875 -23 4 C-22.401875 4.495 -21.80375 4.99 -21.1875 5.5 C-16.49189255 7.70969763 -12.10722444 7.56832272 -7 7 C-3.70094614 5.65344741 -2.50121296 4.83535493 -0.6875 1.8125 C-0.460625 1.214375 -0.23375 0.61625 0 0 Z " fill="#EFD564" transform="translate(403,335)"/>
<path d="M0 0 C3.07156669 3.07156669 3.65912055 6.95758756 4.90234375 11.0546875 C5.97040022 13.92057568 6.86323031 15.8223352 9 18 C11.0316566 18.68850829 11.0316566 18.68850829 13.1875 18.75 C14.445625 18.8325 15.70375 18.915 17 19 C17 19.66 17 20.32 17 21 C15.06280622 21.05406122 13.12518079 21.09282025 11.1875 21.125 C10.10855469 21.14820313 9.02960938 21.17140625 7.91796875 21.1953125 C5 21 5 21 2 19 C2 18.01 2 17.02 2 16 C0.68 15.67 -0.64 15.34 -2 15 C-1.7525 15.556875 -1.505 16.11375 -1.25 16.6875 C-1 19 -1 19 -2.75 21.625 C-5.65477365 24.69114996 -7.17945842 25.92540531 -11.4375 26.3125 C-15.10495017 25.99079384 -16.3990807 25.49688253 -19 23 C-18.67 22.34 -18.34 21.68 -18 21 C-17.34 21.66 -16.68 22.32 -16 23 C-10.54737734 23.59194295 -10.54737734 23.59194295 -5.6875 21.5625 C-1.49571035 15.19718979 0 7.53445203 0 0 Z " fill="#EAD060" transform="translate(343,347)"/>
<path d="M0 0 C4.9868916 4.9868916 3.18356029 17.060378 3.1875 23.75 C3.19974609 24.85988281 3.21199219 25.96976562 3.22460938 27.11328125 C3.22750977 28.72009766 3.22750977 28.72009766 3.23046875 30.359375 C3.23457764 31.32327148 3.23868652 32.28716797 3.24291992 33.28027344 C2.95859846 36.46353083 2.33549495 39.66450505 0 42 C-2.53049402 42.07313567 -5.03304837 42.09247527 -7.5625 42.0625 C-8.62887695 42.05573242 -8.62887695 42.05573242 -9.71679688 42.04882812 C-11.47790013 42.03700864 -13.23896036 42.01907263 -15 42 C-15 41.67 -15 41.34 -15 41 C-9.555 40.505 -9.555 40.505 -4 40 C-4 39.67 -4 39.34 -4 39 C-2.35 39 -0.7 39 1 39 C0.67 26.13 0.34 13.26 0 0 Z " fill="#D8C25F" transform="translate(203,341)"/>
<path d="M0 0 C2.19768517 2.19768517 2.61110685 3.42752232 3.5078125 6.3515625 C3.77207031 7.20234375 4.03632813 8.053125 4.30859375 8.9296875 C4.57800781 9.81914062 4.84742188 10.70859375 5.125 11.625 C5.40214844 12.5221875 5.67929687 13.419375 5.96484375 14.34375 C6.64884026 16.56084214 7.32696672 18.77956001 8 21 C5 23 5 23 3 24 C1.89500435 22.27136297 0.79104086 20.54206612 -0.3125 18.8125 C-0.92738281 17.84957031 -1.54226563 16.88664062 -2.17578125 15.89453125 C-3.82123103 13.28365697 -5.42369665 10.6530398 -7 8 C-6.01 8.33 -5.02 8.66 -4 9 C-2.8125 11.5625 -2.8125 11.5625 -2 14 C-1.01 13.67 -0.02 13.34 1 13 C0.67 8.71 0.34 4.42 0 0 Z " fill="#EFD562" transform="translate(315,344)"/>
<path d="M0 0 C4.71772595 -0.37741808 8.16624762 -0.36568087 12.5625 1.5625 C15 4 15 4 15.3125 7.6875 C15.1578125 9.3271875 15.1578125 9.3271875 15 11 C15.33 11.33 15.66 11.66 16 12 C16.31806866 13.35304809 16.58648407 14.71786828 16.83203125 16.0859375 C17.06744629 17.35195801 17.06744629 17.35195801 17.30761719 18.64355469 C17.47422852 19.54493164 17.64083984 20.44630859 17.8125 21.375 C19.24369724 28.87212819 20.96537788 35.96225933 24 43 C23.01 43.495 23.01 43.495 22 44 C18.57064393 34.49995402 15.91262068 25.02304853 13.78833008 15.14770508 C12.77979004 10.61844346 11.86296771 6.77184635 9 3 C6.04335481 1.5216774 3.25770263 1.93967217 0 2 C0 1.34 0 0.68 0 0 Z " fill="#EDD56C" transform="translate(137,309)"/>
<path d="M0 0 C1.11375 0.680625 1.11375 0.680625 2.25 1.375 C4.44874794 2.67426015 6.71569364 3.85784682 9 5 C4.05 9.95 -0.9 14.9 -6 20 C-6.66 18.68 -7.32 17.36 -8 16 C-7.236875 15.2575 -6.47375 14.515 -5.6875 13.75 C-3.05190726 11.18870238 -3.05190726 11.18870238 -1.375 8.75 C0 7 0 7 3 6 C2.2575 5.071875 2.2575 5.071875 1.5 4.125 C0 2 0 2 0 0 Z M-10 16 C-9.01 16.495 -9.01 16.495 -8 17 C-8.99 17.495 -8.99 17.495 -10 18 C-10 17.34 -10 16.68 -10 16 Z " fill="#F9DC64" transform="translate(331,406)"/>
<path d="M0 0 C3.68069887 1.53643852 5.98775204 3.78150945 8.75 6.625 C9.54921875 7.44226563 10.3484375 8.25953125 11.171875 9.1015625 C12.07679688 10.04128906 12.07679688 10.04128906 13 11 C12.67 11.66 12.34 12.32 12 13 C11.236875 12.484375 10.47375 11.96875 9.6875 11.4375 C8.800625 10.963125 7.91375 10.48875 7 10 C6.01 10.33 5.02 10.66 4 11 C4.66 13.64 5.32 16.28 6 19 C5.01 18.67 4.02 18.34 3 18 C2.05078125 15.48828125 2.05078125 15.48828125 1.3125 12.3125 C1.06113281 11.27738281 0.80976563 10.24226562 0.55078125 9.17578125 C0.00799887 6.04612116 -0.09977125 3.16892485 0 0 Z " fill="#F3D965" transform="translate(379,215)"/>
<path d="M0 0 C0.66 0 1.32 0 2 0 C3.28006797 1.78398614 4.47660351 3.62853906 5.625 5.5 C6.25664062 6.5209375 6.88828125 7.541875 7.5390625 8.59375 C8.02117187 9.3878125 8.50328125 10.181875 9 11 C5.71303767 11.79953138 4.28976808 12.09658936 1 11 C-0.24546405 13.49092811 0.2232422 14.41080733 1 17 C-2.28788824 13.88983545 -4.83735988 10.98381075 -7 7 C-4.69 7.33 -2.38 7.66 0 8 C0.33 7.34 0.66 6.68 1 6 C1.66 6 2.32 6 3 6 C3 5.34 3 4.68 3 4 C2.01 3.67 1.02 3.34 0 3 C0 2.01 0 1.02 0 0 Z " fill="#F0D763" transform="translate(305,331)"/>
<path d="M0 0 C0.66 0 1.32 0 2 0 C1.79503906 0.76183594 1.59007813 1.52367187 1.37890625 2.30859375 C1.10949219 3.34113281 0.84007813 4.37367188 0.5625 5.4375 C0.29566406 6.44683594 0.02882813 7.45617187 -0.24609375 8.49609375 C-2.21694029 17.65593491 -2.12235725 26.72016512 -2.0625 36.0625 C-2.05747314 37.41861813 -2.05291234 38.77473808 -2.04882812 40.13085938 C-2.03712079 43.42061994 -2.02072211 46.71028594 -2 50 C-2.66 49.67 -3.32 49.34 -4 49 C-4.0498757 44.05616687 -4.08594211 39.11248401 -4.10986328 34.16845703 C-4.11984803 32.49069666 -4.13344057 30.81295336 -4.15087891 29.13525391 C-4.37936345 6.56904517 -4.37936345 6.56904517 0 0 Z " fill="#EFD76F" transform="translate(113,154)"/>
<path d="M0 0 C1.98 0.33 3.96 0.66 6 1 C5 3 5 3 2.6171875 4.109375 C-2.25875973 5.3099322 -6.87211383 5.29592437 -11.875 5.25 C-13.39299194 5.24419922 -13.39299194 5.24419922 -14.94165039 5.23828125 C-23.41511045 5.14174052 -31.63788438 4.35929891 -40 3 C-40 2.67 -40 2.34 -40 2 C-38.76080811 2.05329468 -38.76080811 2.05329468 -37.49658203 2.10766602 C-34.38431328 2.23812431 -31.27186869 2.36219854 -28.15917969 2.48217773 C-26.16842416 2.56078534 -24.1779543 2.64652429 -22.1875 2.73242188 C-11.53246168 3.33274903 -11.53246168 3.33274903 -1 2 C-0.67 1.34 -0.34 0.68 0 0 Z " fill="#DEC868" transform="translate(148,266)"/>
<path d="M0 0 C1.32 0.33 2.64 0.66 4 1 C2.8553125 1.928125 2.8553125 1.928125 1.6875 2.875 C-5.43138456 10.01405137 -5.03574952 22.74378272 -5.125 32.125 C-5.09425925 36.85907479 -4.88538387 41.35173468 -4 46 C-6 45 -6 45 -6.61669922 43.21557617 C-7.00897145 40.94814274 -7.12939714 38.85102683 -7.1328125 36.55078125 C-7.13410156 35.70193359 -7.13539063 34.85308594 -7.13671875 33.97851562 C-7.13285156 33.09873047 -7.12898437 32.21894531 -7.125 31.3125 C-7.12886719 30.45205078 -7.13273438 29.59160156 -7.13671875 28.70507812 C-7.12559644 21.32542422 -6.9932703 13.93808822 -4.4375 6.9375 C-4.16808594 6.18339844 -3.89867187 5.42929687 -3.62109375 4.65234375 C-3.41613281 4.10707031 -3.21117187 3.56179688 -3 3 C-2.01 3 -1.02 3 0 3 C0 2.01 0 1.02 0 0 Z " fill="#EDD66B" transform="translate(243,339)"/>
<path d="M0 0 C1.32 0.33 2.64 0.66 4 1 C4 1.99 4 2.98 4 4 C4.66 4 5.32 4 6 4 C6 3.34 6 2.68 6 2 C7.98 2 9.96 2 12 2 C11.2575 2.556875 10.515 3.11375 9.75 3.6875 C5.43543888 7.31565367 2.65445892 10.27348441 2 16 C1.67 16 1.34 16 1 16 C0.8046875 13.94921875 0.609375 11.8984375 0.4140625 9.84765625 C0.20910156 8.93306641 0.20910156 8.93306641 0 8 C-0.66 7.67 -1.32 7.34 -2 7 C-1.125 2.25 -1.125 2.25 0 0 Z " fill="#F2D85F" transform="translate(328,386)"/>
<path d="M0 0 C1.32 0.33 2.64 0.66 4 1 C4.33 2.98 4.66 4.96 5 7 C4.360625 6.505 3.72125 6.01 3.0625 5.5 C-0.86415515 3.57674034 -4.69607711 2.97640785 -9 4 C-11.19826719 5.80128891 -11.89468937 7.31476719 -12.32421875 10.10961914 C-12.52031802 12.65865435 -12.6214382 15.19435193 -12.6875 17.75 C-12.72166016 18.63816406 -12.75582031 19.52632813 -12.79101562 20.44140625 C-12.87328714 22.62747803 -12.94250172 24.81315951 -13 27 C-13.33 27 -13.66 27 -14 27 C-15.55619559 18.24639983 -16.28106687 10.02700038 -12 2 C-8.04 2 -4.08 2 0 2 C0 1.34 0 0.68 0 0 Z " fill="#E2CB68" transform="translate(208,283)"/>
<path d="M0 0 C1.1279967 3.3839901 0.56471468 4.52328252 -0.453125 7.796875 C-3.02026385 18.13877724 -3.50685783 30.89199802 0 41 C0.35371498 42.66246041 0.69595322 44.32774271 1 46 C-2.31861516 42.89548904 -3.87840747 41.00756632 -4.16113281 36.33959961 C-4.20681684 32.87212915 -4.23531394 29.40524687 -4.25 25.9375 C-4.270625 24.74705078 -4.29125 23.55660156 -4.3125 22.33007812 C-4.34762325 14.34392903 -3.60930378 7.21860755 0 0 Z " fill="#E0CA68" transform="translate(133,158)"/>
<path d="M0 0 C0.66 0 1.32 0 2 0 C2.33 2.97 2.66 5.94 3 9 C3.66 9 4.32 9 5 9 C5.33 8.01 5.66 7.02 6 6 C6.66 6.33 7.32 6.66 8 7 C7.67 8.32 7.34 9.64 7 11 C6.34 11 5.68 11 5 11 C5.27263672 11.82238159 5.27263672 11.82238159 5.55078125 12.66137695 C12.14048365 32.79165053 12.14048365 32.79165053 11 42 C10.67 42 10.34 42 10 42 C9.93683594 41.24460937 9.87367188 40.48921875 9.80859375 39.7109375 C8.79334757 30.58440866 6.39674007 22.32546717 3.47631836 13.64208984 C1.95277377 9.10023278 0.58168678 4.78098727 0 0 Z " fill="#EDD46B" transform="translate(214,308)"/>
<path d="M0 0 C0.33 0.99 0.66 1.98 1 3 C1.99 2.34 2.98 1.68 4 1 C6.48046875 1.0234375 6.48046875 1.0234375 9.1875 1.375 C10.08855469 1.48585938 10.98960937 1.59671875 11.91796875 1.7109375 C12.60503906 1.80632812 13.29210937 1.90171875 14 2 C14 2.33 14 2.66 14 3 C13.3709375 3.07476562 12.741875 3.14953125 12.09375 3.2265625 C6.0966946 4.14779691 2.31226721 5.71457769 -2.30859375 9.66015625 C-4 11 -4 11 -7 12 C-7.99 10.35 -8.98 8.7 -10 7 C-7.03 7.495 -7.03 7.495 -4 8 C-4 7.34 -4 6.68 -4 6 C-3.34 6 -2.68 6 -2 6 C-2.33 5.01 -2.66 4.02 -3 3 C-2.01 2.01 -1.02 1.02 0 0 Z " fill="#F2D969" transform="translate(325,306)"/>
<path d="M0 0 C0 3 0 3 -1.4375 4.5 C-1.953125 4.995 -2.46875 5.49 -3 6 C-3.33 6.99 -3.66 7.98 -4 9 C-5.92578125 10.6484375 -5.92578125 10.6484375 -8.3125 12.375 C-11.79591968 14.99031194 -14.35054563 17.52830117 -17 21 C-18.94010352 22.75625331 -20.95017377 24.36945641 -23 26 C-23.66 25.67 -24.32 25.34 -25 25 C-16.75 16.75 -8.5 8.5 0 0 Z " fill="#F4DD72" transform="translate(105,144)"/>
<path d="M0 0 C4.97333608 -0.29254918 8.0436971 -0.16504232 12 3 C14.34418521 6.23720814 14.60174818 9.08863683 14 13 C12.22285016 15.86203782 10.18405 18.43894137 8 21 C7.67 20.01 7.34 19.02 7 18 C6.34 18 5.68 18 5 18 C5.66 16.68 6.32 15.36 7 14 C7.66 14.33 8.32 14.66 9 15 C9.33 14.34 9.66 13.68 10 13 C10.66 13 11.32 13 12 13 C11.76536621 8.93301428 11.62113909 6.67437958 8.8125 3.625 C5.79081505 1.87913759 3.45419117 1.32132011 0 1 C0 0.67 0 0.34 0 0 Z " fill="#E2CC63" transform="translate(161,236)"/>
<path d="M0 0 C1.02083333 0.875 2.04166667 1.75 3.0625 2.625 C3.71089844 3.16898437 4.35929688 3.71296875 5.02734375 4.2734375 C7 6 7 6 8.56640625 7.6640625 C13.80571031 12.99528418 19.77586166 13.36992478 27 14 C27 14.33 27 14.66 27 15 C19.87399867 15.35368021 14.52940894 14.95671348 8 12 C8 11.01 8 10.02 8 9 C7.01 9.33 6.02 9.66 5 10 C2.8125 9.0625 2.8125 9.0625 1 8 C1.66 7.67 2.32 7.34 3 7 C3 6.01 3 5.02 3 4 C2.01 4 1.02 4 0 4 C0 2.68 0 1.36 0 0 Z " fill="#E1C860" transform="translate(239,386)"/>
<path d="M0 0 C0.70461365 0.02502594 1.40922729 0.05005188 2.13519287 0.07583618 C4.3770971 0.15775395 6.61808267 0.25444945 8.859375 0.3515625 C10.38277545 0.40983111 11.90621317 0.46713376 13.4296875 0.5234375 C17.15674719 0.66328897 20.88312678 0.81639587 24.609375 0.9765625 C23.9885128 4.65954116 23.54262518 6.55344279 20.609375 8.9765625 C20.939375 6.6665625 21.269375 4.3565625 21.609375 1.9765625 C20.5678125 2.06035156 19.52625 2.14414063 18.453125 2.23046875 C8.38739708 2.96946557 -1.33975461 2.85584457 -11.390625 1.9765625 C-7.70243608 -0.42485829 -4.23146151 -0.20055123 0 0 Z " fill="#E0CA6C" transform="translate(272.390625,236.0234375)"/>
<path d="M0 0 C3.66771845 1.83385923 5.46834996 3.25062829 8.25 6.125 C8.95640625 6.84945313 9.6628125 7.57390625 10.390625 8.3203125 C11.18726563 9.15175781 11.18726563 9.15175781 12 10 C10.02 10.99 10.02 10.99 8 12 C7.67 10.35 7.34 8.7 7 7 C6.01 6.67 5.02 6.34 4 6 C3.34 5.7525 2.68 5.505 2 5.25 C1.34 5.1675 0.68 5.085 0 5 C-0.495 5.495 -0.99 5.99 -1.5 6.5 C-1.995 6.995 -2.49 7.49 -3 8 C-4.32 7.67 -5.64 7.34 -7 7 C-4.69 4.69 -2.38 2.38 0 0 Z " fill="#F6DD6F" transform="translate(249,0)"/>
<path d="M0 0 C8.5 8.5 8.5 8.5 10.28515625 10.296875 C11.3606172 11.36498656 12.44994719 12.41949964 13.55859375 13.453125 C14.75858677 14.58173033 15.88685093 15.78565556 17 17 C17 17.99 17 18.98 17 20 C16.34 20 15.68 20 15 20 C15 19.34 15 18.68 15 18 C14.01 18.33 13.02 18.66 12 19 C9.37613513 15.93882432 9 15.26826873 9 11 C8.38125 10.9175 7.7625 10.835 7.125 10.75 C5 10 5 10 3.9375 8.1875 C3.628125 7.465625 3.31875 6.74375 3 6 C2.195625 4.948125 2.195625 4.948125 1.375 3.875 C0 2 0 2 0 0 Z " fill="#E4CD67" transform="translate(114,211)"/>
<path d="M0 0 C0 0.66 0 1.32 0 2 C1.32 2.33 2.64 2.66 4 3 C3.67 3.66 3.34 4.32 3 5 C2.31139893 4.67854004 1.62279785 4.35708008 0.91333008 4.02587891 C-2.39667902 2.86031633 -5.10882553 2.68194999 -8.61328125 2.5859375 C-9.86044922 2.54726562 -11.10761719 2.50859375 -12.39257812 2.46875 C-13.68615234 2.4378125 -14.97972656 2.406875 -16.3125 2.375 C-17.62541016 2.33632812 -18.93832031 2.29765625 -20.29101562 2.2578125 C-23.52720437 2.16366883 -26.76338935 2.07803648 -30 2 C-30 1.67 -30 1.34 -30 1 C-19.98707052 -0.09945892 -10.05598201 -0.10055982 0 0 Z " fill="#D2BC65" transform="translate(301,217)"/>
<path d="M0 0 C0.99 1.485 0.99 1.485 2 3 C1.01 3.33 0.02 3.66 -1 4 C-1.33 3.34 -1.66 2.68 -2 2 C-8.9524886 -0.52527172 -17.8537703 0.70068551 -25 2 C-25 1.34 -25 0.68 -25 0 C-17.38684086 -3.20554069 -7.70843036 -3.10663034 0 0 Z " fill="#DFC862" transform="translate(174,146)"/>
<path d="M0 0 C0.66 0 1.32 0 2 0 C2 0.66 2 1.32 2 2 C2.99 2.33 3.98 2.66 5 3 C2.03 5.97 -0.94 8.94 -4 12 C-4.66 10.68 -5.32 9.36 -6 8 C-5.04956626 6.66102417 -4.08940853 5.32894573 -3.125 4 C-2.59132813 3.2575 -2.05765625 2.515 -1.5078125 1.75 C-1.01023437 1.1725 -0.51265625 0.595 0 0 Z " fill="#F7DA64" transform="translate(391,352)"/>
<path d="M0 0 C2.06348821 0.83829209 4.03678574 1.76077807 6 2.8125 C6 3.4725 6 4.1325 6 4.8125 C6.99 4.8125 7.98 4.8125 9 4.8125 C9.66 7.7825 10.32 10.7525 11 13.8125 C8.83929536 11.65179536 7.56696638 9.42411063 6 6.8125 C4.07127924 4.44848616 4.07127924 4.44848616 0.625 4.5625 C-2.63523324 4.78734367 -4.30632641 5.0885489 -7 6.8125 C-6.62492618 4.09321483 -6.15781339 2.97031339 -4.1875 1 C-2 -0.1875 -2 -0.1875 0 0 Z " fill="#F8DD6B" transform="translate(210,186.1875)"/>
<path d="M0 0 C0.66 0 1.32 0 2 0 C1.79375 0.556875 1.5875 1.11375 1.375 1.6875 C0.89304789 4.659538 1.73434972 6.31979941 3 9 C4.0828125 8.6596875 4.0828125 8.6596875 5.1875 8.3125 C8.7809319 7.91322979 10.18230651 8.82635074 13 11 C13 11.66 13 12.32 13 13 C8.12535437 12.69034013 4.3149634 12.14901754 0.5546875 8.86328125 C-1.39687269 6.63542491 -3.24376063 4.38416853 -5 2 C-4.360625 1.855625 -3.72125 1.71125 -3.0625 1.5625 C-1.02454854 1.18992819 -1.02454854 1.18992819 0 0 Z " fill="#E7D065" transform="translate(421,218)"/>
<path d="M0 0 C1.65 0 3.3 0 5 0 C6.125 1.75 6.125 1.75 7 4 C6.125 6.25 6.125 6.25 5 8 C4.67 7.34 4.34 6.68 4 6 C1.97536745 5.34786708 1.97536745 5.34786708 0 5 C0 7.64 0 10.28 0 13 C-0.33 13 -0.66 13 -1 13 C-1.02708567 11.39592672 -1.04643483 9.7917215 -1.0625 8.1875 C-1.07410156 7.29417969 -1.08570313 6.40085937 -1.09765625 5.48046875 C-1 3 -1 3 0 0 Z " fill="#FBDE5C" transform="translate(334,329)"/>
<path d="M0 0 C2.8125 0.5625 2.8125 0.5625 6 2 C8.90497151 7.27198533 9.39944898 11.49749404 9.1875 17.4375 C9.17396484 18.16904297 9.16042969 18.90058594 9.14648438 19.65429688 C9.11153874 21.43652422 9.05774805 23.21836573 9 25 C8.34 25.33 7.68 25.66 7 26 C7.06960938 24.62328125 7.06960938 24.62328125 7.140625 23.21875 C7.35937103 15.78138513 7.33976248 10.19077228 3 4 C2.4225 3.175 1.845 2.35 1.25 1.5 C0.8375 1.005 0.425 0.51 0 0 Z " fill="#F1DA70" transform="translate(306,222)"/>
<path d="M0 0 C2.375 0.1875 2.375 0.1875 5 1 C6.54579223 3.59974148 7.06396144 5.23246275 6.8125 8.25 C6.4103125 9.11625 6.4103125 9.11625 6 10 C5.01 10.33 4.02 10.66 3 11 C2.49632243 9.54293274 1.99717444 8.08429904 1.5 6.625 C1.2215625 5.81289063 0.943125 5.00078125 0.65625 4.1640625 C0 2 0 2 0 0 Z " fill="#F7DB64" transform="translate(319,365)"/>
<path d="M0 0 C3.9036874 3.46994436 6.36588975 7.55224006 9 12 C5.15625 10.328125 5.15625 10.328125 3.75 7.375 C3.5025 6.59125 3.255 5.8075 3 5 C2.34 5 1.68 5 1 5 C1.02320313 5.83144531 1.04640625 6.66289062 1.0703125 7.51953125 C1.08835937 8.60621094 1.10640625 9.69289063 1.125 10.8125 C1.14820313 11.89144531 1.17140625 12.97039062 1.1953125 14.08203125 C1 17 1 17 -1 20 C-1.11044961 13.26257354 -0.70132913 6.70019789 0 0 Z " fill="#EBD570" transform="translate(284,356)"/>
<path d="M0 0 C0.99 0.495 0.99 0.495 2 1 C1.98952637 1.61407715 1.97905273 2.2281543 1.96826172 2.86083984 C1.92615791 5.69884997 1.90050378 8.53679401 1.875 11.375 C1.85824219 12.34050781 1.84148437 13.30601562 1.82421875 14.30078125 C1.78075164 20.77738043 2.46767329 26.706577 4 33 C3.34 33 2.68 33 2 33 C-0.24734928 29.40735167 -0.23200508 26.44857927 -0.1953125 22.265625 C-0.18886719 20.97011719 -0.18242187 19.67460937 -0.17578125 18.33984375 C-0.15907193 16.97655981 -0.14214206 15.61327856 -0.125 14.25 C-0.1149634 12.87110015 -0.10583873 11.49219335 -0.09765625 10.11328125 C-0.07408093 6.74201118 -0.0411727 3.37109364 0 0 Z " fill="#EFD66F" transform="translate(369,298)"/>
<path d="M0 0 C0.66 0.99 1.32 1.98 2 3 C-1.63 6.63 -5.26 10.26 -9 14 C-9.66 13.67 -10.32 13.34 -11 13 C-10.67 11.35 -10.34 9.7 -10 8 C-8.02 7.67 -6.04 7.34 -4 7 C-3.8453125 6.1028125 -3.8453125 6.1028125 -3.6875 5.1875 C-2.91123545 2.71756736 -1.92911079 1.67748765 0 0 Z " fill="#F6DA69" transform="translate(445,301)"/>
<path d="M0 0 C0.66 0 1.32 0 2 0 C2 0.66 2 1.32 2 2 C3.98 2 5.96 2 8 2 C8.84454356 5.37817425 9.10844919 7.67465243 8 11 C5 10 5 10 3.61328125 7.71484375 C3.18402344 6.79832031 2.75476563 5.88179688 2.3125 4.9375 C1.87550781 4.01839844 1.43851562 3.09929687 0.98828125 2.15234375 C0.49908203 1.08693359 0.49908203 1.08693359 0 0 Z " fill="#F4DA64" transform="translate(413,305)"/>
<path d="M0 0 C0 2.31 0 4.62 0 7 C-0.33 5.68 -0.66 4.36 -1 3 C-2.98491642 3.26676204 -2.98491642 3.26676204 -5 4 C-5.33 4.99 -5.66 5.98 -6 7 C-6.66 7 -7.32 7 -8 7 C-8.20625 7.639375 -8.4125 8.27875 -8.625 8.9375 C-10 11 -10 11 -13.125 11.75 C-14.548125 11.87375 -14.548125 11.87375 -16 12 C-13.17329371 8.11243956 -10.40286347 5.69414464 -6.3125 3.1875 C-5.33925781 2.58292969 -4.36601562 1.97835937 -3.36328125 1.35546875 C-1 0 -1 0 0 0 Z " fill="#E8D26D" transform="translate(357,196)"/>
<path d="M0 0 C2.77971334 2.77971334 3.11799464 5.24189808 3.31640625 9.01171875 C3.35830078 9.76904297 3.40019531 10.52636719 3.44335938 11.30664062 C3.48267578 12.09232422 3.52199219 12.87800781 3.5625 13.6875 C3.60568359 14.48478516 3.64886719 15.28207031 3.69335938 16.10351562 C3.79927368 18.06881447 3.90012551 20.03438496 4 22 C1.41872753 19.41872753 1.57837766 17.5425632 1 14 C0.34 13.01 -0.32 12.02 -1 11 C-0.9765625 8.30078125 -0.9765625 8.30078125 -0.625 5.3125 C-0.51414062 4.31863281 -0.40328125 3.32476562 -0.2890625 2.30078125 C-0.19367188 1.54152344 -0.09828125 0.78226563 0 0 Z " fill="#E6CC65" transform="translate(357,204)"/>
<path d="M0 0 C0.33 0.66 0.66 1.32 1 2 C2.98 1.67 4.96 1.34 7 1 C6.04578192 2.14926266 5.08647955 3.29430541 4.125 4.4375 C3.59132813 5.07558594 3.05765625 5.71367187 2.5078125 6.37109375 C1 8 1 8 -1 9 C-2.1875 6.75 -2.1875 6.75 -3 4 C-1.625 1.6875 -1.625 1.6875 0 0 Z " fill="#F8DC65" transform="translate(451,291)"/>
<path d="M0 0 C0.5625 1.9375 0.5625 1.9375 1 4 C0.67 4.33 0.34 4.66 0 5 C-0.15582303 6.34015221 -0.25044142 7.68758903 -0.31640625 9.03515625 C-0.37924805 10.24848633 -0.37924805 10.24848633 -0.44335938 11.48632812 C-0.48267578 12.33646484 -0.52199219 13.18660156 -0.5625 14.0625 C-0.60568359 14.91650391 -0.64886719 15.77050781 -0.69335938 16.65039062 C-0.79976702 18.76672037 -0.90041731 20.88333813 -1 23 C-3.82496717 20.17503283 -3.29994045 18.25201123 -3.3125 14.3125 C-3.24931928 8.72387806 -2.76416568 4.83728994 0 0 Z " fill="#D3BD61" transform="translate(340,209)"/>
<path d="M0 0 C0 3.16785869 -0.55555175 4.28103859 -2 7 C-2.33 7.99 -2.66 8.98 -3 10 C-2.01 10 -1.02 10 0 10 C0 11.65 0 13.3 0 15 C-2.31 13.02 -4.62 11.04 -7 9 C-5.04783565 5.09567131 -3.12613393 2.96160056 0 0 Z " fill="#F5DC6F" transform="translate(7,242)"/>
<path d="M0 0 C5.29012124 4.40843437 10.18808428 9.07559794 15 14 C12 14 12 14 10.3515625 12.5390625 C9.78179687 11.90742188 9.21203125 11.27578125 8.625 10.625 C5.9370975 7.80013432 3.84976844 6.04993685 0 5 C0 3.35 0 1.7 0 0 Z " fill="#F5DD6F" transform="translate(410,160)"/>
<path d="M0 0 C0.78375 0.33 1.5675 0.66 2.375 1 C4.84332497 2.11866511 4.84332497 2.11866511 7 2 C7.37125 2.886875 7.7425 3.77375 8.125 4.6875 C10.33056538 8.58399884 12.46128706 10.32630578 16 13 C15.67 13.99 15.34 14.98 15 16 C12.49599357 13.5248518 9.99748094 11.04423106 7.5 8.5625 C6.78457031 7.85544922 6.06914062 7.14839844 5.33203125 6.41992188 C4.65527344 5.74638672 3.97851562 5.07285156 3.28125 4.37890625 C2.65283203 3.7557251 2.02441406 3.13254395 1.37695312 2.49047852 C0 1 0 1 0 0 Z " fill="#F5DD74" transform="translate(143,393)"/>
<path d="M0 0 C0.56460938 0.70898438 1.12921875 1.41796875 1.7109375 2.1484375 C4.76500624 5.95299413 7.87262549 9.71265217 10.9765625 13.4765625 C13 16 13 16 15 19 C11.11694869 17.4850876 9.34283415 15.16857333 6.875 11.875 C5.62875581 10.21490868 4.34659989 8.57977736 3 7 C2.34 7 1.68 7 1 7 C0.67 4.69 0.34 2.38 0 0 Z " fill="#E6D167" transform="translate(147,369)"/>
<path d="M0 0 C0.99 0 1.98 0 3 0 C3.05428973 2.22889496 3.09292338 4.45817471 3.125 6.6875 C3.14820313 7.92886719 3.17140625 9.17023438 3.1953125 10.44921875 C3.01032021 13.81237857 2.45767895 15.9985587 1 19 C-0.32 18.67 -1.64 18.34 -3 18 C-2.33484375 17.31550781 -1.6696875 16.63101562 -0.984375 15.92578125 C1.50270008 12.25881426 1.27553572 10.52316972 0.75 6.1875 C0.62109375 5.02605469 0.4921875 3.86460937 0.359375 2.66796875 C0.24078125 1.78753906 0.1221875 0.90710938 0 0 Z " fill="#EAD66B" transform="translate(364,347)"/>
<path d="M0 0 C1.32 0.33 2.64 0.66 4 1 C4 5 4 5 2.46875 6.703125 C1.8190625 7.21359375 1.169375 7.7240625 0.5 8.25 C-0.1496875 8.77078125 -0.799375 9.2915625 -1.46875 9.828125 C-1.9740625 10.21484375 -2.479375 10.6015625 -3 11 C-3 9.02 -3 7.04 -3 5 C-1.68 4.67 -0.36 4.34 1 4 C0.67 2.68 0.34 1.36 0 0 Z " fill="#F6DC6C" transform="translate(495,247)"/>
<path d="M0 0 C0.99 0.33 1.98 0.66 3 1 C2.91269147 3.73064947 2.80577876 6.4581619 2.6875 9.1875 C2.66494141 9.95642578 2.64238281 10.72535156 2.61914062 11.51757812 C2.40079472 16.14254148 1.86253256 19.17049934 -1 23 C-1.66 22.67 -2.32 22.34 -3 22 C-2.505 20.96875 -2.01 19.9375 -1.5 18.875 C0.83899743 12.79141044 0.24310367 6.41073369 0 0 Z " fill="#EDD56D" transform="translate(193,236)"/>
<path d="M0 0 C-0.99 0.66 -1.98 1.32 -3 2 C-3.474375 2.474375 -3.94875 2.94875 -4.4375 3.4375 C-6 5 -6 5 -8.0625 6.5 C-10.2486367 8.02807664 -10.2486367 8.02807664 -12 11 C-11.71574109 7.30463414 -11.4523486 4.6785229 -9.375 1.5625 C-6.16093309 -0.5520177 -3.76478675 -0.28959898 0 0 Z " fill="#1B1104" transform="translate(314,313)"/>
<path d="M0 0 C1.3921875 0.4640625 1.3921875 0.4640625 2.8125 0.9375 C7.77871546 2.3783156 12.86205306 2.64694036 18 3 C16 5 16 5 12.25 5.25 C8.54017494 5.16876295 5.46191974 4.38476789 2 3 C2 3.66 2 4.32 2 5 C1.34 5 0.68 5 0 5 C0 3.35 0 1.7 0 0 Z " fill="#F8DC74" transform="translate(256,272)"/>
<path d="M0 0 C3.44428265 1.44781793 5.36130962 3.27694609 7.75 6.125 C8.36359375 6.84945313 8.9771875 7.57390625 9.609375 8.3203125 C10.29773438 9.15175781 10.29773438 9.15175781 11 10 C10.34 10.66 9.68 11.32 9 12 C8.34 10.68 7.68 9.36 7 8 C5.68 8.33 4.36 8.66 3 9 C3 7.68 3 6.36 3 5 C2.01 4.67 1.02 4.34 0 4 C0 2.68 0 1.36 0 0 Z " fill="#E8CF66" transform="translate(297,375)"/>
<path d="M0 0 C-0.66 1.98 -1.32 3.96 -2 6 C-3.79232337 5.69128878 -5.58384321 5.37790936 -7.375 5.0625 C-8.37273437 4.88847656 -9.37046875 4.71445312 -10.3984375 4.53515625 C-13 4 -13 4 -15 3 C-14.67 2.34 -14.34 1.68 -14 1 C-13.34 1.33 -12.68 1.66 -12 2 C-7.19338094 2.26217922 -4.17129282 0 0 0 Z " fill="#F1DB69" transform="translate(231,264)"/>
<path d="M0 0 C2.31 0.66 4.62 1.32 7 2 C7 1.34 7 0.68 7 0 C7.66 0 8.32 0 9 0 C9 0.66 9 1.32 9 2 C10.65 2.33 12.3 2.66 14 3 C12 5 12 5 8.6875 5.4375 C4.14528078 4.89859263 2.85237979 3.45743005 0 0 Z " fill="#ECD566" transform="translate(348,250)"/>
<path d="M0 0 C0.33 0.66 0.66 1.32 1 2 C0.319375 3.60875 0.319375 3.60875 -0.375 5.25 C-2.80466864 11.24096377 -2.73990038 17.6141058 -3 24 C-3.33 24 -3.66 24 -4 24 C-4.05434116 21.4580411 -4.0938339 18.91726318 -4.125 16.375 C-4.14175781 15.66214844 -4.15851563 14.94929687 -4.17578125 14.21484375 C-4.21670567 9.75408243 -3.7906978 6.16994662 -2 2 C-1.34 1.34 -0.68 0.68 0 0 Z " fill="#CBB75E" transform="translate(246,186)"/>
<path d="M0 0 C2.31 1.98 4.62 3.96 7 6 C5.10646634 7.89353366 3.15473199 9.4198632 1 11 C0.34 10.67 -0.32 10.34 -1 10 C-0.01 9.01 0.98 8.02 2 7 C1.67 6.401875 1.34 5.80375 1 5.1875 C0 3 0 3 0 0 Z " fill="#F9DD69" transform="translate(489,239)"/>
<path d="M0 0 C1.134375 0.020625 2.26875 0.04125 3.4375 0.0625 C3.416875 0.92875 3.39625 1.795 3.375 2.6875 C3.43488956 5.92153648 3.83330933 8.89049897 4.4375 12.0625 C3.7775 11.0725 3.1175 10.0825 2.4375 9.0625 C0.18140367 6.298782 -2.03916237 3.58583763 -4.5625 1.0625 C-3.5625 0.0625 -3.5625 0.0625 0 0 Z " fill="#EAD364" transform="translate(187.5625,219.9375)"/>
<path d="M0 0 C0.66 0.99 1.32 1.98 2 3 C5.465 2.505 5.465 2.505 9 2 C7.8553125 2.8971875 7.8553125 2.8971875 6.6875 3.8125 C4.6516425 5.46959332 2.8021721 7.10297674 1 9 C-0.625 7.3125 -0.625 7.3125 -2 5 C-1.1875 2.25 -1.1875 2.25 0 0 Z " fill="#F2DA65" transform="translate(266,322)"/>
<path d="M0 0 C0.33 0.99 0.66 1.98 1 3 C-0.24034412 4.32162881 -1.49268626 5.63200453 -2.75 6.9375 C-3.44609375 7.66839844 -4.1421875 8.39929688 -4.859375 9.15234375 C-7.00599725 11.00517646 -8.23532932 11.60771565 -11 12 C-7.49102731 7.81576108 -3.91939465 3.80411834 0 0 Z " fill="#F5DD70" transform="translate(153,96)"/>
<path d="M0 0 C0.33 0.66 0.66 1.32 1 2 C1.99 2.33 2.98 2.66 4 3 C1.69 4.98 -0.62 6.96 -3 9 C-3 8.34 -3 7.68 -3 7 C-3.66 7 -4.32 7 -5 7 C-5 5 -5 5 -2.5 2.375 C-1.675 1.59125 -0.85 0.8075 0 0 Z " fill="#F7DA64" transform="translate(487,257)"/>
<path d="M0 0 C-0.11398665 1.62580966 -0.24155659 3.25067157 -0.375 4.875 C-0.47941406 6.23238281 -0.47941406 6.23238281 -0.5859375 7.6171875 C-1 10 -1 10 -3 12 C-3.33 8.37 -3.66 4.74 -4 1 C-2 0 -2 0 0 0 Z " fill="#F5DA67" transform="translate(176,149)"/>
<path d="M0 0 C1.65 0.33 3.3 0.66 5 1 C3.02 3.31 1.04 5.62 -1 8 C-5 6 -5 6 -6 4 C-3.69 4 -1.38 4 1 4 C0.67 2.68 0.34 1.36 0 0 Z " fill="#F4DB71" transform="translate(252,492)"/>
<path d="M0 0 C0.7425 0.45375 1.485 0.9075 2.25 1.375 C4.46930578 2.68640796 6.67967822 3.88280803 9 5 C6.03 7.475 6.03 7.475 3 10 C2.87625 9.278125 2.7525 8.55625 2.625 7.8125 C2.0095069 5.04278106 1.11555626 2.6029646 0 0 Z " fill="#E5D36F" transform="translate(331,406)"/>
<path d="M0 0 C1.31611677 0.95336021 2.62778961 1.91285774 3.9375 2.875 C4.66839844 3.40867187 5.39929688 3.94234375 6.15234375 4.4921875 C8 6 8 6 9 8 C3.57142857 8.36190476 3.57142857 8.36190476 1.125 6.8125 C-0.34090576 4.45076295 -0.08049828 2.73246924 0 0 Z " fill="#ECD365" transform="translate(162,388)"/>
<path d="M0 0 C1.12894876 0.93274109 2.25300876 1.87140122 3.375 2.8125 C4.00148438 3.33457031 4.62796875 3.85664063 5.2734375 4.39453125 C7 6 7 6 9 9 C8.01 9 7.02 9 6 9 C6 8.34 6 7.68 6 7 C5.21625 6.896875 4.4325 6.79375 3.625 6.6875 C1 6 1 6 -1 3 C-0.67 2.01 -0.34 1.02 0 0 Z " fill="#F7DD6F" transform="translate(458,208)"/>
<path d="M0 0 C1.12894876 0.93274109 2.25300876 1.87140122 3.375 2.8125 C4.00148438 3.33457031 4.62796875 3.85664063 5.2734375 4.39453125 C7 6 7 6 9 9 C8.01 9 7.02 9 6 9 C6 8.34 6 7.68 6 7 C5.21625 6.896875 4.4325 6.79375 3.625 6.6875 C1 6 1 6 -1 3 C-0.67 2.01 -0.34 1.02 0 0 Z " fill="#F7DC6E" transform="translate(442,192)"/>
<path d="M0 0 C2.65927684 2.65927684 3.1810914 5.59408266 4.125 9.125 C4.39763672 10.11306641 4.39763672 10.11306641 4.67578125 11.12109375 C5.12315437 12.74576456 5.56236535 14.37267893 6 16 C5.34 16.33 4.68 16.66 4 17 C4 16.01 4 15.02 4 14 C3.34 14 2.68 14 2 14 C1.66179834 12.4176994 1.32964061 10.83410625 1 9.25 C0.814375 8.36828125 0.62875 7.4865625 0.4375 6.578125 C0 4 0 4 0 0 Z " fill="#E4CD69" transform="translate(315,344)"/>
<path d="M0 0 C3.44270451 1.53009089 6.18925822 3.4931222 9 6 C9.33 6.99 9.66 7.98 10 9 C10.99 9.33 11.98 9.66 13 10 C12.34 10.66 11.68 11.32 11 12 C9.16364422 10.19047409 7.33083792 8.37759362 5.5 6.5625 C4.97535156 6.04623047 4.45070313 5.52996094 3.91015625 4.99804688 C2.58775448 3.68423213 1.29164432 2.34406495 0 1 C0 0.67 0 0.34 0 0 Z " fill="#E9D46E" transform="translate(396,199)"/>
<path d="M0 0 C0.66 0.33 1.32 0.66 2 1 C-4.435 6.94 -4.435 6.94 -11 13 C-11 10 -11 10 -9.35546875 8.02734375 C-8.64003906 7.33769531 -7.92460938 6.64804688 -7.1875 5.9375 C-6.47980469 5.24527344 -5.77210937 4.55304688 -5.04296875 3.83984375 C-3 2 -3 2 0 0 Z " fill="#1C1003" transform="translate(132,134)"/>
<path d="M0 0 C1.32 0.33 2.64 0.66 4 1 C1.36 3.64 -1.28 6.28 -4 9 C-4.33 8.01 -4.66 7.02 -5 6 C-4.34 6 -3.68 6 -3 6 C-3 4.68 -3 3.36 -3 2 C-2.01 1.34 -1.02 0.68 0 0 Z " fill="#F1D86D" transform="translate(382,364)"/>
<path d="M0 0 C0.86625 1.11375 0.86625 1.11375 1.75 2.25 C3.72253526 4.66087643 5.76044282 6.84042701 8 9 C6.02 9.66 4.04 10.32 2 11 C2.04125 10.21625 2.0825 9.4325 2.125 8.625 C2.28728734 5.83883881 2.28728734 5.83883881 0 4 C0 2.68 0 1.36 0 0 Z " fill="#EDD566" transform="translate(71,269)"/>
<path d="M0 0 C0.33 0.66 0.66 1.32 1 2 C-0.3125 4.625 -0.3125 4.625 -2 7 C-2.66 7 -3.32 7 -4 7 C-4.33 7.66 -4.66 8.32 -5 9 C-6.875 10.6875 -6.875 10.6875 -9 12 C-9.99 11.67 -10.98 11.34 -12 11 C-11.30132812 10.45730469 -10.60265625 9.91460937 -9.8828125 9.35546875 C-8.97273437 8.64003906 -8.06265625 7.92460937 -7.125 7.1875 C-6.22007812 6.47980469 -5.31515625 5.77210938 -4.3828125 5.04296875 C-1.83397044 3.04412259 -1.83397044 3.04412259 0 0 Z " fill="#1F1304" transform="translate(172,252)"/>
<path d="M0 0 C0.625 3.0625 0.625 3.0625 1 6 C-4.66153846 4.52307692 -4.66153846 4.52307692 -6.375 1.875 C-6.58125 1.25625 -6.7875 0.6375 -7 0 C-2.25 -1.125 -2.25 -1.125 0 0 Z " fill="#EED567" transform="translate(270,212)"/>
<path d="M0 0 C0 0.99 0 1.98 0 3 C-0.763125 2.690625 -1.52625 2.38125 -2.3125 2.0625 C-7.17314841 0.66197419 -11.96858173 0.34020266 -17 0 C-17 -0.33 -17 -0.66 -17 -1 C-10.77104914 -2.13253652 -6.08251096 -1.70366626 0 0 Z " fill="#DBC464" transform="translate(287,175)"/>
<path d="M0 0 C0.66 0 1.32 0 2 0 C2.3125 2.25 2.3125 2.25 2 5 C-0.5 7.3125 -0.5 7.3125 -3 9 C-3.33 7.35 -3.66 5.7 -4 4 C-3.34 4 -2.68 4 -2 4 C-1.34 2.68 -0.68 1.36 0 0 Z " fill="#E9D05D" transform="translate(124,135)"/>
<path d="M0 0 C0 0.99 0 1.98 0 3 C-3.40742883 5.50546238 -6.97488434 6.78310457 -11 8 C-11.66 7.34 -12.32 6.68 -13 6 C-12.14535156 5.65066406 -11.29070312 5.30132812 -10.41015625 4.94140625 C-9.30542969 4.48636719 -8.20070312 4.03132813 -7.0625 3.5625 C-5.96035156 3.11003906 -4.85820312 2.65757812 -3.72265625 2.19140625 C-1.13431084 1.25575392 -1.13431084 1.25575392 0 0 Z " fill="#E5D167" transform="translate(165,281)"/>
<path d="M0 0 C0 0.99 0 1.98 0 3 C-2.5 5.1875 -2.5 5.1875 -5 7 C-5 5.68 -5 4.36 -5 3 C-8.3 3 -11.6 3 -15 3 C-15 2.67 -15 2.34 -15 2 C-14.08476562 1.93941406 -13.16953125 1.87882812 -12.2265625 1.81640625 C-10.44378906 1.69072266 -10.44378906 1.69072266 -8.625 1.5625 C-7.44164062 1.48128906 -6.25828125 1.40007812 -5.0390625 1.31640625 C-2.08481099 1.18915064 -2.08481099 1.18915064 0 0 Z " fill="#C9B54E" transform="translate(372,272)"/>
<path d="M0 0 C0.66 0.33 1.32 0.66 2 1 C0.87548273 3.9719385 -0.22293791 6.33440687 -2 9 C-2.66 8.67 -3.32 8.34 -4 8 C-4.33 8.66 -4.66 9.32 -5 10 C-5.3125 7.8125 -5.3125 7.8125 -5 5 C-2.5 2.1875 -2.5 2.1875 0 0 Z " fill="#ECD461" transform="translate(139,151)"/>
<path d="M0 0 C0.33 0.66 0.66 1.32 1 2 C-4.96583144 9.66742597 -4.96583144 9.66742597 -10 11 C-6.79239749 7.19364503 -3.59253891 3.45436433 0 0 Z " fill="#F3DD72" transform="translate(132,117)"/>
<path d="M0 0 C0.33 0.66 0.66 1.32 1 2 C-4.96583144 9.66742597 -4.96583144 9.66742597 -10 11 C-6.79239749 7.19364503 -3.59253891 3.45436433 0 0 Z " fill="#F3DD72" transform="translate(228,21)"/>
<path d="M0 0 C0.33 0 0.66 0 1 0 C1 3.3 1 6.6 1 10 C0.01 10.33 -0.98 10.66 -2 11 C-2 11.66 -2 12.32 -2 13 C-2.66 13 -3.32 13 -4 13 C-3.52140759 11.39566191 -3.04210442 9.79153584 -2.5625 8.1875 C-2.29566406 7.29417969 -2.02882813 6.40085937 -1.75390625 5.48046875 C-1.19612127 3.64526945 -0.60655425 1.81966274 0 0 Z " fill="#E3CD67" transform="translate(281,379)"/>
<path d="M0 0 C2.31 0.66 4.62 1.32 7 2 C7.12375 2.5775 7.2475 3.155 7.375 3.75 C8.00725613 6.02612206 8.91863468 7.90760206 10 10 C2.51708428 3.84965831 2.51708428 3.84965831 0 0 Z " fill="#F5DD6E" transform="translate(203,453)"/>
<path d="M0 0 C2.31 0.66 4.62 1.32 7 2 C7.12375 2.5775 7.2475 3.155 7.375 3.75 C8.00725613 6.02612206 8.91863468 7.90760206 10 10 C2.51708428 3.84965831 2.51708428 3.84965831 0 0 Z " fill="#F5DD6E" transform="translate(187,437)"/>
<path d="M0 0 C0 0.99 0 1.98 0 3 C-4.87804878 7.87804878 -4.87804878 7.87804878 -8.875 8.3125 C-9.926875 8.1578125 -9.926875 8.1578125 -11 8 C-11 7.34 -11 6.68 -11 6 C-10.37351562 5.73445313 -9.74703125 5.46890625 -9.1015625 5.1953125 C-8.28429687 4.84210938 -7.46703125 4.48890625 -6.625 4.125 C-5.40683594 3.60292969 -5.40683594 3.60292969 -4.1640625 3.0703125 C-1.86197701 2.07553933 -1.86197701 2.07553933 0 0 Z " fill="#F5DC6C" transform="translate(274,395)"/>
<path d="M0 0 C1.32 1.32 2.64 2.64 4 4 C3.34 4 2.68 4 2 4 C1.67 4.66 1.34 5.32 1 6 C0.01 6.33 -0.98 6.66 -2 7 C-2.33 5.68 -2.66 4.36 -3 3 C-2.34 3 -1.68 3 -1 3 C-0.67 2.01 -0.34 1.02 0 0 Z " fill="#F5D964" transform="translate(293,369)"/>
<path d="M0 0 C2.31 0.66 4.62 1.32 7 2 C7.12375 2.5775 7.2475 3.155 7.375 3.75 C8.00725613 6.02612206 8.91863468 7.90760206 10 10 C2.51708428 3.84965831 2.51708428 3.84965831 0 0 Z " fill="#F5DD6E" transform="translate(75,325)"/>
<path d="M0 0 C2.31 0.66 4.62 1.32 7 2 C7.12375 2.5775 7.2475 3.155 7.375 3.75 C8.00725613 6.02612206 8.91863468 7.90760206 10 10 C2.51708428 3.84965831 2.51708428 3.84965831 0 0 Z " fill="#F5DD6E" transform="translate(59,309)"/>
<path d="M0 0 C2.31 0.66 4.62 1.32 7 2 C7.12375 2.5775 7.2475 3.155 7.375 3.75 C8.00725613 6.02612206 8.91863468 7.90760206 10 10 C2.51708428 3.84965831 2.51708428 3.84965831 0 0 Z " fill="#F5DD6E" transform="translate(43,293)"/>
<path d="M0 0 C4.29 0 8.58 0 13 0 C10 2 10 2 8 2 C7.67 2.99 7.34 3.98 7 5 C6.67 4.34 6.34 3.68 6 3 C4.02111039 2.27306096 2.02045442 1.60183749 0 1 C0 0.67 0 0.34 0 0 Z " fill="#F6DD6C" transform="translate(154,237)"/>
<path d="M0 0 C1.875 0.125 1.875 0.125 4 1 C4.70381157 2.98723268 5.3711811 4.98777953 6 7 C6.99 7.33 7.98 7.66 9 8 C8.34 8.66 7.68 9.32 7 10 C5.82739389 8.71372289 4.6620717 7.42080217 3.5 6.125 C2.8503125 5.40570313 2.200625 4.68640625 1.53125 3.9453125 C0 2 0 2 0 0 Z " fill="#E3CB6A" transform="translate(134,204)"/>
<path d="M0 0 C2.31 1.98 4.62 3.96 7 6 C5.68 6.33 4.36 6.66 3 7 C0.75 5.0625 0.75 5.0625 -1 3 C-0.67 2.01 -0.34 1.02 0 0 Z " fill="#F7DD6D" transform="translate(426,176)"/>
<path d="M0 0 C0 1.65 0 3.3 0 5 C-1.875 6.0625 -1.875 6.0625 -4 7 C-4.66 6.67 -5.32 6.34 -6 6 C-4.90218919 2.70656758 -3.7827394 0 0 0 Z " fill="#F2D858" transform="translate(328,372)"/>
<path d="M0 0 C-0.33 0.99 -0.66 1.98 -1 3 C-2.32 3 -3.64 3 -5 3 C-5.33 3.99 -5.66 4.98 -6 6 C-8.5625 7.6875 -8.5625 7.6875 -11 9 C-9.23608757 4.5100411 -5.10838455 0 0 0 Z " fill="#251605" transform="translate(252,338)"/>
<path d="M0 0 C2.6224715 2.6224715 2.64217954 4.35023127 3 8 C2.5625 10.875 2.5625 10.875 2 13 C0 11 0 11 -0.1953125 8.3984375 C-0.17210937 7.40070313 -0.14890625 6.40296875 -0.125 5.375 C-0.10695313 4.37210937 -0.08890625 3.36921875 -0.0703125 2.3359375 C-0.04710937 1.56507813 -0.02390625 0.79421875 0 0 Z " fill="#F7DD69" transform="translate(361,330)"/>
<path d="M0 0 C3.16115776 1.36983503 3.9927092 1.9890638 6 5 C5.01 5 4.02 5 3 5 C2.34 5.99 1.68 6.98 1 8 C-0.35439668 5.29120665 -0.06501451 2.99066732 0 0 Z " fill="#DCC76B" transform="translate(379,215)"/>
<path d="M0 0 C0.66 0 1.32 0 2 0 C2 5.61 2 11.22 2 17 C1.67 17 1.34 17 1 17 C0.93941406 16.18015625 0.87882812 15.3603125 0.81640625 14.515625 C0.73261719 13.43796875 0.64882813 12.3603125 0.5625 11.25 C0.48128906 10.18265625 0.40007812 9.1153125 0.31640625 8.015625 C0.08385541 5.09107621 0.08385541 5.09107621 -0.59765625 2.671875 C-0.73042969 2.12015625 -0.86320312 1.5684375 -1 1 C-0.67 0.67 -0.34 0.34 0 0 Z " fill="#CFBC5A" transform="translate(359,322)"/>
<path d="M0 0 C2.31 0.66 4.62 1.32 7 2 C7.33 3.32 7.66 4.64 8 6 C5 6 5 6 3.61328125 4.6875 C2.40885417 3.125 1.20442708 1.5625 0 0 Z " fill="#F6DC6D" transform="translate(15,265)"/>
<path d="M0 0 C0.55429688 0.42152344 1.10859375 0.84304687 1.6796875 1.27734375 C2.40414062 1.82519531 3.12859375 2.37304688 3.875 2.9375 C4.59429687 3.48277344 5.31359375 4.02804688 6.0546875 4.58984375 C7.94357079 6.03964624 7.94357079 6.03964624 10 7 C10 7.66 10 8.32 10 9 C5.06789169 7.76697292 2.78225429 6.28039122 0 2 C0 1.34 0 0.68 0 0 Z " fill="#E2CD6A" transform="translate(250,226)"/>
<path d="M0 0 C1.32 0.33 2.64 0.66 4 1 C0.535 3.97 0.535 3.97 -3 7 C-2.25 2.25 -2.25 2.25 0 0 Z " fill="#F6DA6F" transform="translate(271,475)"/>
<path d="M0 0 C2.31 0.66 4.62 1.32 7 2 C7 3.65 7 5.3 7 7 C5.83040013 6.02433888 4.66438823 5.044375 3.5 4.0625 C2.8503125 3.51722656 2.200625 2.97195313 1.53125 2.41015625 C1.0259375 1.94480469 0.520625 1.47945313 0 1 C0 0.67 0 0.34 0 0 Z " fill="#F6DD6F" transform="translate(223,473)"/>
<path d="M0 0 C2.31 0.66 4.62 1.32 7 2 C7 3.65 7 5.3 7 7 C5.83040013 6.02433888 4.66438823 5.044375 3.5 4.0625 C2.8503125 3.51722656 2.200625 2.97195313 1.53125 2.41015625 C1.0259375 1.94480469 0.520625 1.47945313 0 1 C0 0.67 0 0.34 0 0 Z " fill="#F6DD6F" transform="translate(175,425)"/>
<path d="M0 0 C-1.20381448 2.49361571 -2.45428722 4.68143083 -4 7 C-4.38499891 8.65549531 -4.72793135 10.3222433 -5 12 C-5.33 12 -5.66 12 -6 12 C-6.32644414 7.83783725 -6.40650982 5.63686538 -4.125 2.0625 C-2 0 -2 0 0 0 Z " fill="#36280A" transform="translate(138,311)"/>
<path d="M0 0 C3.375 0.25 3.375 0.25 7 1 C7.66 2.32 8.32 3.64 9 5 C5.7 4.01 2.4 3.02 -1 2 C-0.67 1.34 -0.34 0.68 0 0 Z " fill="#241807" transform="translate(97,281)"/>
<path d="M0 0 C0.88336837 2.4667645 1.1312406 3.63859372 0.22265625 6.140625 C-0.16019531 6.83671875 -0.54304688 7.5328125 -0.9375 8.25 C-1.31777344 8.95640625 -1.69804687 9.6628125 -2.08984375 10.390625 C-2.39019531 10.92171875 -2.69054687 11.4528125 -3 12 C-3.88336837 9.5332355 -4.1312406 8.36140628 -3.22265625 5.859375 C-2.83980469 5.16328125 -2.45695312 4.4671875 -2.0625 3.75 C-1.68222656 3.04359375 -1.30195313 2.3371875 -0.91015625 1.609375 C-0.60980469 1.07828125 -0.30945313 0.5471875 0 0 Z " fill="#190F01" transform="translate(312,244)"/>
<path d="M0 0 C2.97 1.98 2.97 1.98 6 4 C5.67 4.66 5.34 5.32 5 6 C4.34 6 3.68 6 3 6 C3 5.34 3 4.68 3 4 C2.01 4.33 1.02 4.66 0 5 C-0.66 3.68 -1.32 2.36 -2 1 C-1.34 0.67 -0.68 0.34 0 0 Z " fill="#F1D669" transform="translate(126,225)"/>
<path d="M0 0 C1.98 0.66 3.96 1.32 6 2 C6.33 4.31 6.66 6.62 7 9 C4.61327331 6.03716687 2.2646629 3.05729491 0 0 Z " fill="#DDC964" transform="translate(306,222)"/>
<path d="M0 0 C0.66 0 1.32 0 2 0 C2.99 2.64 3.98 5.28 5 8 C3.35 8.33 1.7 8.66 0 9 C0 6.03 0 3.06 0 0 Z " fill="#E5CD5F" transform="translate(242,214)"/>
<path d="M0 0 C0.9075 0.391875 1.815 0.78375 2.75 1.1875 C2.75 1.5175 2.75 1.8475 2.75 2.1875 C1.615625 2.31125 0.48125 2.435 -0.6875 2.5625 C-2.4509375 2.871875 -2.4509375 2.871875 -4.25 3.1875 C-4.58 3.8475 -4.91 4.5075 -5.25 5.1875 C-6.24 5.1875 -7.23 5.1875 -8.25 5.1875 C-6.69513011 0.52289033 -4.95439476 -1.23859869 0 0 Z " fill="#ECD356" transform="translate(272.25,170.8125)"/>
<path d="M0 0 C1.66611905 -0.042721 3.33382885 -0.04063832 5 0 C6 1 6 1 6.0625 3.5625 C6.041875 4.366875 6.02125 5.17125 6 6 C3.97945196 4.35830472 1.97956942 2.69088222 0 1 C0 0.67 0 0.34 0 0 Z " fill="#F6DD6F" transform="translate(160,410)"/>
<path d="M0 0 C1.32 0.33 2.64 0.66 4 1 C3.67 1.99 3.34 2.98 3 4 C-0.0625 5.1875 -0.0625 5.1875 -3 6 C-3 5.34 -3 4.68 -3 4 C-2.34 3.67 -1.68 3.34 -1 3 C-0.67 2.01 -0.34 1.02 0 0 Z " fill="#F1D965" transform="translate(348,379)"/>
<path d="M0 0 C1.66611905 -0.042721 3.33382885 -0.04063832 5 0 C6 1 6 1 6.0625 3.5625 C6.041875 4.366875 6.02125 5.17125 6 6 C3.97945196 4.35830472 1.97956942 2.69088222 0 1 C0 0.67 0 0.34 0 0 Z " fill="#F6DD6E" transform="translate(128,378)"/>
<path d="M0 0 C1.66611905 -0.042721 3.33382885 -0.04063832 5 0 C6 1 6 1 6.0625 3.5625 C6.041875 4.366875 6.02125 5.17125 6 6 C3.97945196 4.35830472 1.97956942 2.69088222 0 1 C0 0.67 0 0.34 0 0 Z " fill="#F6DD6D" transform="translate(112,362)"/>
<path d="M0 0 C1.66611905 -0.042721 3.33382885 -0.04063832 5 0 C6 1 6 1 6.0625 3.5625 C6.041875 4.366875 6.02125 5.17125 6 6 C3.97945196 4.35830472 1.97956942 2.69088222 0 1 C0 0.67 0 0.34 0 0 Z " fill="#F6DD6D" transform="translate(96,346)"/>
<path d="M0 0 C0.66 0 1.32 0 2 0 C2 0.99 2 1.98 2 3 C2.99 3.33 3.98 3.66 5 4 C4.01 5.32 3.02 6.64 2 8 C-0.1519437 4.77208445 -0.20086443 3.71599191 0 0 Z " fill="#F9DB65" transform="translate(130,308)"/>
<path d="M0 0 C0.598125 0.20625 1.19625 0.4125 1.8125 0.625 C1.049375 1.0375 0.28625 1.45 -0.5 1.875 C-3.1241642 3.58375809 -4.49071976 5.03517753 -6.1875 7.625 C-5.875 4.75 -5.875 4.75 -5.1875 1.625 C-2.1875 -0.375 -2.1875 -0.375 0 0 Z " fill="#251805" transform="translate(377.1875,293.375)"/>
<path d="M0 0 C1.66611905 -0.042721 3.33382885 -0.04063832 5 0 C6 1 6 1 6.0625 3.5625 C6.041875 4.366875 6.02125 5.17125 6 6 C3.97945196 4.35830472 1.97956942 2.69088222 0 1 C0 0.67 0 0.34 0 0 Z " fill="#F6DD6E" transform="translate(32,282)"/>
<path d="M0 0 C2.61527381 2.36620011 4.26440562 4.942048 6 8 C4.68 8 3.36 8 2 8 C1.34 5.36 0.68 2.72 0 0 Z " fill="#E5CE65" transform="translate(328,255)"/>
<path d="M0 0 C1.32 0.66 2.64 1.32 4 2 C1.60490662 4.89932357 -0.31245243 5.50168276 -4 6 C-2.68 4.02 -1.36 2.04 0 0 Z " fill="#ECD464" transform="translate(308,256)"/>
<path d="M0 0 C3.33333333 1.66666667 6.66666667 3.33333333 10 5 C8.375 5.75 8.375 5.75 6 6 C2.75 4.1875 2.75 4.1875 0 2 C0 1.34 0 0.68 0 0 Z " fill="#E1CD6C" transform="translate(409,240)"/>
<path d="M0 0 C3.96 0 7.92 0 12 0 C12 0.66 12 1.32 12 2 C10.9275 1.979375 9.855 1.95875 8.75 1.9375 C5.85209576 1.9857984 3.71387859 2.13155885 1 3 C0.67 2.01 0.34 1.02 0 0 Z " fill="#F0D66D" transform="translate(80,243)"/>
<path d="M0 0 C1.98 1.65 3.96 3.3 6 5 C5.01 5.495 5.01 5.495 4 6 C3.67 6.66 3.34 7.32 3 8 C0.4345406 5.4345406 0.45953913 3.52313332 0 0 Z " fill="#F8DC6C" transform="translate(287,37)"/>
<path d="M0 0 C0.66 0 1.32 0 2 0 C3.37073786 1.63604196 4.70055256 3.30678061 6 5 C6.98230498 6.0173873 7.97469597 7.02596117 9 8 C6 8 6 8 4.39453125 6.7578125 C3.87246094 6.21898437 3.35039062 5.68015625 2.8125 5.125 C2.28269531 4.59132813 1.75289062 4.05765625 1.20703125 3.5078125 C0 2 0 2 0 0 Z " fill="#F5DD71" transform="translate(135,384)"/>
<path d="M0 0 C2.475 0.495 2.475 0.495 5 1 C5.66 3.97 6.32 6.94 7 10 C4.83133199 7.83133199 3.54539472 5.64004931 2 3 C1.34 2.01 0.68 1.02 0 0 Z " fill="#E9D36E" transform="translate(214,190)"/>
<path d="M0 0 C0.33 1.98 0.66 3.96 1 6 C0.01 6.495 0.01 6.495 -1 7 C-2.65 5.02 -4.3 3.04 -6 1 C-3.92446352 0.4465236 -2.15634036 0 0 0 Z " fill="#F2D966" transform="translate(312,186)"/>
<path d="M0 0 C1.98 1.65 3.96 3.3 6 5 C3 6 3 6 0.8125 5.0625 C0.214375 4.711875 -0.38375 4.36125 -1 4 C-0.67 2.68 -0.34 1.36 0 0 Z " fill="#F8DD6B" transform="translate(371,121)"/>
<path d="M0 0 C2.0625 0.4375 2.0625 0.4375 4 1 C1.03 3.475 1.03 3.475 -2 6 C-1.125 1.125 -1.125 1.125 0 0 Z " fill="#F6DA6F" transform="translate(286,460)"/>
<path d="M0 0 C2.0625 0.4375 2.0625 0.4375 4 1 C1.03 3.475 1.03 3.475 -2 6 C-1.125 1.125 -1.125 1.125 0 0 Z " fill="#F6DA6F" transform="translate(302,444)"/>
<path d="M0 0 C2.0625 0.4375 2.0625 0.4375 4 1 C1.03 3.475 1.03 3.475 -2 6 C-1.125 1.125 -1.125 1.125 0 0 Z " fill="#F6DA6F" transform="translate(318,428)"/>
<path d="M0 0 C2.0625 0.4375 2.0625 0.4375 4 1 C1.03 3.475 1.03 3.475 -2 6 C-1.125 1.125 -1.125 1.125 0 0 Z " fill="#F5DA6F" transform="translate(462,284)"/>
<path d="M0 0 C2.31 0.66 4.62 1.32 7 2 C6.67 2.66 6.34 3.32 6 4 C4.68 3.67 3.36 3.34 2 3 C2 3.66 2 4.32 2 5 C1.34 5 0.68 5 0 5 C0 3.35 0 1.7 0 0 Z " fill="#F0D665" transform="translate(256,272)"/>
<path d="M0 0 C5.02254631 -0.2954439 7.89542386 0.01485372 12 3 C11.01 3.66 10.02 4.32 9 5 C8.62875 4.525625 8.2575 4.05125 7.875 3.5625 C5.37353038 1.47794198 3.18406582 1.35378509 0 1 C0 0.67 0 0.34 0 0 Z " fill="#C4B356" transform="translate(161,236)"/>
<path d="M0 0 C0.99 0 1.98 0 3 0 C3 2.31 3 4.62 3 7 C2.34 7 1.68 7 1 7 C0.67 4.69 0.34 2.38 0 0 Z " fill="#E2CD64" transform="translate(364,347)"/>
<path d="M0 0 C0.99 0.495 0.99 0.495 2 1 C2.34342449 2.33076989 2.67619874 3.66431979 3 5 C3.66 5.66 4.32 6.32 5 7 C3.02 7.99 3.02 7.99 1 9 C0.67 6.03 0.34 3.06 0 0 Z " fill="#D5C570" transform="translate(420,319)"/>
<path d="M0 0 C0 0.33 0 0.66 0 1 C-1.093125 1.12375 -2.18625 1.2475 -3.3125 1.375 C-7.07381802 1.75464801 -7.07381802 1.75464801 -10 4 C-9.625 2.0625 -9.625 2.0625 -9 0 C-5.93109813 -1.53445094 -3.29905734 -0.54984289 0 0 Z " fill="#DDC969" transform="translate(314,312)"/>
<path d="M0 0 C0.66 0 1.32 0 2 0 C2.33 0.99 2.66 1.98 3 3 C1.68 3.99 0.36 4.98 -1 6 C-1.625 4.125 -1.625 4.125 -2 2 C-1.34 1.34 -0.68 0.68 0 0 Z " fill="#F8DC64" transform="translate(472,273)"/>
<path d="M0 0 C-1 3 -1 3 -4.0625 4.6875 C-5.031875 5.120625 -6.00125 5.55375 -7 6 C-7.33 5.34 -7.66 4.68 -8 4 C-7.01 4 -6.02 4 -5 4 C-4.67 3.01 -4.34 2.02 -4 1 C-2 0 -2 0 0 0 Z " fill="#211608" transform="translate(95,257)"/>
<path d="M0 0 C0.66 0 1.32 0 2 0 C2 0.99 2 1.98 2 3 C2.99 2.67 3.98 2.34 5 2 C5 3.65 5 5.3 5 7 C4.01 6.67 3.02 6.34 2 6 C0.8125 2.9375 0.8125 2.9375 0 0 Z " fill="#EBD065" transform="translate(338,232)"/>
<path d="M0 0 C0.66 0 1.32 0 2 0 C0.44499019 3.81684226 -2.03595495 6.19195732 -5 9 C-3.7580393 5.56072421 -2.44259716 2.74792181 0 0 Z " fill="#2A1A08" transform="translate(251,181)"/>
<path d="M0 0 C2.02054804 1.64169528 4.02043058 3.30911778 6 5 C6 5.33 6 5.66 6 6 C4.35 6 2.7 6 1 6 C0.67 4.02 0.34 2.04 0 0 Z " fill="#F7DD6E" transform="translate(383,133)"/>
</svg>
